<?xml version="1.0" standalone="no"?>
 <!DOCTYPE svg PUBLIC "-//W3C//DTD SVG 1.1//EN" 
 "http://www.w3.org/Graphics/SVG/1.1/DTD/svg11.dtd"> 
<svg
  xmlns:svg="http://www.w3.org/2000/svg"
  xmlns="http://www.w3.org/2000/svg"
  xmlns:xlink="http://www.w3.org/1999/xlink"
  version="1.1"
  width="27.940000cm" height="21.590000cm" viewBox="0 0 110000 85000">
<title>SVG Picture created as HalfBridge-Row4.svg date 2020/09/14 19:03:24 </title>
  <desc>Picture generated by Eeschema-SVG </desc>
<g style="fill:#000000; fill-opacity:1;stroke:#000000; stroke-opacity:1;
stroke-linecap:round; stroke-linejoin:round;"
 transform="translate(0 0) scale(1 1)">
</g>
<g style="fill:#000000; fill-opacity:0.0; 
stroke:#000000; stroke-width:-10; stroke-opacity:1; 
stroke-linecap:round; stroke-linejoin:round;">
</g>
<g style="fill:#840000; fill-opacity:0.0; 
stroke:#840000; stroke-width:-10; stroke-opacity:1; 
stroke-linecap:round; stroke-linejoin:round;">
</g>
<g style="fill:#840000; fill-opacity:0.0; 
stroke:#840000; stroke-width:100; stroke-opacity:1; 
stroke-linecap:round; stroke-linejoin:round;">
</g>
<g style="fill:#840000; fill-opacity:0.0; 
stroke:#840000; stroke-width:60; stroke-opacity:1; 
stroke-linecap:round; stroke-linejoin:round;">
<rect x="62760" y="67680" width="42520" height="12600" rx="0" />
</g>
<g style="fill:#840000; fill-opacity:0.0; 
stroke:#840000; stroke-width:100; stroke-opacity:1; 
stroke-linecap:round; stroke-linejoin:round;">
</g>
<g style="fill:#840000; fill-opacity:0.0; 
stroke:#840000; stroke-width:60; stroke-opacity:1; 
stroke-linecap:round; stroke-linejoin:round;">
<rect x="3940" y="3940" width="102120" height="77120" rx="0" />
</g>
<g style="fill:#840000; fill-opacity:0.0; 
stroke:#840000; stroke-width:100; stroke-opacity:1; 
stroke-linecap:round; stroke-linejoin:round;">
</g>
<g style="fill:#840000; fill-opacity:0.0; 
stroke:#840000; stroke-width:60; stroke-opacity:1; 
stroke-linecap:round; stroke-linejoin:round;">
<rect x="4720" y="4720" width="100560" height="75560" rx="0" />
</g>
<g style="fill:#840000; fill-opacity:0.0; 
stroke:#840000; stroke-width:100; stroke-opacity:1; 
stroke-linecap:round; stroke-linejoin:round;">
</g>
<g style="fill:#840000; fill-opacity:0.0; 
stroke:#840000; stroke-width:60; stroke-opacity:1; 
stroke-linecap:round; stroke-linejoin:round;">
<path d="M23620 4720
L23620 3940
" />
</g>
<g style="fill:#840000; fill-opacity:0.0; 
stroke:#840000; stroke-width:100; stroke-opacity:1; 
stroke-linecap:round; stroke-linejoin:round;">
</g>
<g style="fill:#840000; fill-opacity:0.0; 
stroke:#840000; stroke-width:60; stroke-opacity:1; 
stroke-linecap:round; stroke-linejoin:round;">
<path d="M43310 4720
L43310 3940
" />
</g>
<g style="fill:#840000; fill-opacity:0.0; 
stroke:#840000; stroke-width:100; stroke-opacity:1; 
stroke-linecap:round; stroke-linejoin:round;">
</g>
<g style="fill:#840000; fill-opacity:0.0; 
stroke:#840000; stroke-width:60; stroke-opacity:1; 
stroke-linecap:round; stroke-linejoin:round;">
<path d="M62990 4720
L62990 3940
" />
</g>
<g style="fill:#840000; fill-opacity:0.0; 
stroke:#840000; stroke-width:100; stroke-opacity:1; 
stroke-linecap:round; stroke-linejoin:round;">
</g>
<g style="fill:#840000; fill-opacity:0.0; 
stroke:#840000; stroke-width:60; stroke-opacity:1; 
stroke-linecap:round; stroke-linejoin:round;">
<path d="M82680 4720
L82680 3940
" />
</g>
<g style="fill:#840000; fill-opacity:0.0; 
stroke:#840000; stroke-width:100; stroke-opacity:1; 
stroke-linecap:round; stroke-linejoin:round;">
</g>
<g style="fill:#840000; fill-opacity:0.0; 
stroke:#840000; stroke-width:60; stroke-opacity:1; 
stroke-linecap:round; stroke-linejoin:round;">
<path d="M102360 4720
L102360 3940
" />
</g>
<g style="fill:#840000; fill-opacity:0.0; 
stroke:#840000; stroke-width:100; stroke-opacity:1; 
stroke-linecap:round; stroke-linejoin:round;">
</g>
<g style="fill:#840000; fill-opacity:0.0; 
stroke:#840000; stroke-width:60; stroke-opacity:1; 
stroke-linecap:round; stroke-linejoin:round;">
<text x="13780" y="4580"
textLength="550" font-size="680" lengthAdjust="spacingAndGlyphs"
text-anchor="start" opacity="0">1</text>
<path d="M14190 4560
L13900 4560
" />
<path d="M14050 4560
L14050 4050
L14000 4120
L13950 4170
L13900 4190
" />
</g>
<g style="fill:#840000; fill-opacity:0.0; 
stroke:#840000; stroke-width:100; stroke-opacity:1; 
stroke-linecap:round; stroke-linejoin:round;">
</g>
<g style="fill:#840000; fill-opacity:0.0; 
stroke:#840000; stroke-width:60; stroke-opacity:1; 
stroke-linecap:round; stroke-linejoin:round;">
<text x="33460" y="4580"
textLength="550" font-size="680" lengthAdjust="spacingAndGlyphs"
text-anchor="start" opacity="0">2</text>
<path d="M33580 4090
L33610 4070
L33660 4050
L33780 4050
L33830 4070
L33850 4090
L33870 4140
L33870 4190
L33850 4260
L33560 4560
L33870 4560
" />
</g>
<g style="fill:#840000; fill-opacity:0.0; 
stroke:#840000; stroke-width:100; stroke-opacity:1; 
stroke-linecap:round; stroke-linejoin:round;">
</g>
<g style="fill:#840000; fill-opacity:0.0; 
stroke:#840000; stroke-width:60; stroke-opacity:1; 
stroke-linecap:round; stroke-linejoin:round;">
<text x="53150" y="4580"
textLength="550" font-size="680" lengthAdjust="spacingAndGlyphs"
text-anchor="start" opacity="0">3</text>
<path d="M53250 4050
L53560 4050
L53390 4240
L53470 4240
L53520 4260
L53540 4290
L53560 4340
L53560 4460
L53540 4510
L53520 4530
L53470 4560
L53320 4560
L53270 4530
L53250 4510
" />
</g>
<g style="fill:#840000; fill-opacity:0.0; 
stroke:#840000; stroke-width:100; stroke-opacity:1; 
stroke-linecap:round; stroke-linejoin:round;">
</g>
<g style="fill:#840000; fill-opacity:0.0; 
stroke:#840000; stroke-width:60; stroke-opacity:1; 
stroke-linecap:round; stroke-linejoin:round;">
<text x="72830" y="4580"
textLength="550" font-size="680" lengthAdjust="spacingAndGlyphs"
text-anchor="start" opacity="0">4</text>
<path d="M73200 4220
L73200 4560
" />
<path d="M73070 4020
L72950 4390
L73270 4390
" />
</g>
<g style="fill:#840000; fill-opacity:0.0; 
stroke:#840000; stroke-width:100; stroke-opacity:1; 
stroke-linecap:round; stroke-linejoin:round;">
</g>
<g style="fill:#840000; fill-opacity:0.0; 
stroke:#840000; stroke-width:60; stroke-opacity:1; 
stroke-linecap:round; stroke-linejoin:round;">
<text x="92520" y="4580"
textLength="550" font-size="680" lengthAdjust="spacingAndGlyphs"
text-anchor="start" opacity="0">5</text>
<path d="M92910 4050
L92670 4050
L92640 4290
L92670 4260
L92720 4240
L92840 4240
L92890 4260
L92910 4290
L92930 4340
L92930 4460
L92910 4510
L92890 4530
L92840 4560
L92720 4560
L92670 4530
L92640 4510
" />
</g>
<g style="fill:#840000; fill-opacity:0.0; 
stroke:#840000; stroke-width:100; stroke-opacity:1; 
stroke-linecap:round; stroke-linejoin:round;">
</g>
<g style="fill:#840000; fill-opacity:0.0; 
stroke:#840000; stroke-width:60; stroke-opacity:1; 
stroke-linecap:round; stroke-linejoin:round;">
<path d="M23620 80280
L23620 81060
" />
</g>
<g style="fill:#840000; fill-opacity:0.0; 
stroke:#840000; stroke-width:100; stroke-opacity:1; 
stroke-linecap:round; stroke-linejoin:round;">
</g>
<g style="fill:#840000; fill-opacity:0.0; 
stroke:#840000; stroke-width:60; stroke-opacity:1; 
stroke-linecap:round; stroke-linejoin:round;">
<path d="M43310 80280
L43310 81060
" />
</g>
<g style="fill:#840000; fill-opacity:0.0; 
stroke:#840000; stroke-width:100; stroke-opacity:1; 
stroke-linecap:round; stroke-linejoin:round;">
</g>
<g style="fill:#840000; fill-opacity:0.0; 
stroke:#840000; stroke-width:60; stroke-opacity:1; 
stroke-linecap:round; stroke-linejoin:round;">
<path d="M62990 80280
L62990 81060
" />
</g>
<g style="fill:#840000; fill-opacity:0.0; 
stroke:#840000; stroke-width:100; stroke-opacity:1; 
stroke-linecap:round; stroke-linejoin:round;">
</g>
<g style="fill:#840000; fill-opacity:0.0; 
stroke:#840000; stroke-width:60; stroke-opacity:1; 
stroke-linecap:round; stroke-linejoin:round;">
<path d="M82680 80280
L82680 81060
" />
</g>
<g style="fill:#840000; fill-opacity:0.0; 
stroke:#840000; stroke-width:100; stroke-opacity:1; 
stroke-linecap:round; stroke-linejoin:round;">
</g>
<g style="fill:#840000; fill-opacity:0.0; 
stroke:#840000; stroke-width:60; stroke-opacity:1; 
stroke-linecap:round; stroke-linejoin:round;">
<path d="M102360 80280
L102360 81060
" />
</g>
<g style="fill:#840000; fill-opacity:0.0; 
stroke:#840000; stroke-width:100; stroke-opacity:1; 
stroke-linecap:round; stroke-linejoin:round;">
</g>
<g style="fill:#840000; fill-opacity:0.0; 
stroke:#840000; stroke-width:60; stroke-opacity:1; 
stroke-linecap:round; stroke-linejoin:round;">
<text x="13780" y="80920"
textLength="550" font-size="680" lengthAdjust="spacingAndGlyphs"
text-anchor="start" opacity="0">1</text>
<path d="M14190 80900
L13900 80900
" />
<path d="M14050 80900
L14050 80390
L14000 80460
L13950 80510
L13900 80530
" />
</g>
<g style="fill:#840000; fill-opacity:0.0; 
stroke:#840000; stroke-width:100; stroke-opacity:1; 
stroke-linecap:round; stroke-linejoin:round;">
</g>
<g style="fill:#840000; fill-opacity:0.0; 
stroke:#840000; stroke-width:60; stroke-opacity:1; 
stroke-linecap:round; stroke-linejoin:round;">
<text x="33460" y="80920"
textLength="550" font-size="680" lengthAdjust="spacingAndGlyphs"
text-anchor="start" opacity="0">2</text>
<path d="M33580 80430
L33610 80410
L33660 80390
L33780 80390
L33830 80410
L33850 80430
L33870 80480
L33870 80530
L33850 80600
L33560 80900
L33870 80900
" />
</g>
<g style="fill:#840000; fill-opacity:0.0; 
stroke:#840000; stroke-width:100; stroke-opacity:1; 
stroke-linecap:round; stroke-linejoin:round;">
</g>
<g style="fill:#840000; fill-opacity:0.0; 
stroke:#840000; stroke-width:60; stroke-opacity:1; 
stroke-linecap:round; stroke-linejoin:round;">
<text x="53150" y="80920"
textLength="550" font-size="680" lengthAdjust="spacingAndGlyphs"
text-anchor="start" opacity="0">3</text>
<path d="M53250 80390
L53560 80390
L53390 80580
L53470 80580
L53520 80600
L53540 80630
L53560 80680
L53560 80800
L53540 80850
L53520 80870
L53470 80900
L53320 80900
L53270 80870
L53250 80850
" />
</g>
<g style="fill:#840000; fill-opacity:0.0; 
stroke:#840000; stroke-width:100; stroke-opacity:1; 
stroke-linecap:round; stroke-linejoin:round;">
</g>
<g style="fill:#840000; fill-opacity:0.0; 
stroke:#840000; stroke-width:60; stroke-opacity:1; 
stroke-linecap:round; stroke-linejoin:round;">
<text x="72830" y="80920"
textLength="550" font-size="680" lengthAdjust="spacingAndGlyphs"
text-anchor="start" opacity="0">4</text>
<path d="M73200 80560
L73200 80900
" />
<path d="M73070 80360
L72950 80730
L73270 80730
" />
</g>
<g style="fill:#840000; fill-opacity:0.0; 
stroke:#840000; stroke-width:100; stroke-opacity:1; 
stroke-linecap:round; stroke-linejoin:round;">
</g>
<g style="fill:#840000; fill-opacity:0.0; 
stroke:#840000; stroke-width:60; stroke-opacity:1; 
stroke-linecap:round; stroke-linejoin:round;">
<text x="92520" y="80920"
textLength="550" font-size="680" lengthAdjust="spacingAndGlyphs"
text-anchor="start" opacity="0">5</text>
<path d="M92910 80390
L92670 80390
L92640 80630
L92670 80600
L92720 80580
L92840 80580
L92890 80600
L92910 80630
L92930 80680
L92930 80800
L92910 80850
L92890 80870
L92840 80900
L92720 80900
L92670 80870
L92640 80850
" />
</g>
<g style="fill:#840000; fill-opacity:0.0; 
stroke:#840000; stroke-width:100; stroke-opacity:1; 
stroke-linecap:round; stroke-linejoin:round;">
</g>
<g style="fill:#840000; fill-opacity:0.0; 
stroke:#840000; stroke-width:60; stroke-opacity:1; 
stroke-linecap:round; stroke-linejoin:round;">
<path d="M3940 23620
L4720 23620
" />
</g>
<g style="fill:#840000; fill-opacity:0.0; 
stroke:#840000; stroke-width:100; stroke-opacity:1; 
stroke-linecap:round; stroke-linejoin:round;">
</g>
<g style="fill:#840000; fill-opacity:0.0; 
stroke:#840000; stroke-width:60; stroke-opacity:1; 
stroke-linecap:round; stroke-linejoin:round;">
<path d="M3940 43310
L4720 43310
" />
</g>
<g style="fill:#840000; fill-opacity:0.0; 
stroke:#840000; stroke-width:100; stroke-opacity:1; 
stroke-linecap:round; stroke-linejoin:round;">
</g>
<g style="fill:#840000; fill-opacity:0.0; 
stroke:#840000; stroke-width:60; stroke-opacity:1; 
stroke-linecap:round; stroke-linejoin:round;">
<path d="M3940 62990
L4720 62990
" />
</g>
<g style="fill:#840000; fill-opacity:0.0; 
stroke:#840000; stroke-width:100; stroke-opacity:1; 
stroke-linecap:round; stroke-linejoin:round;">
</g>
<g style="fill:#840000; fill-opacity:0.0; 
stroke:#840000; stroke-width:60; stroke-opacity:1; 
stroke-linecap:round; stroke-linejoin:round;">
<text x="4330" y="14030"
textLength="500" font-size="680" lengthAdjust="spacingAndGlyphs"
text-anchor="middle" opacity="0">A</text>
<path d="M4200 13860
L4450 13860
" />
<path d="M4160 14010
L4330 13500
L4500 14010
" />
</g>
<g style="fill:#840000; fill-opacity:0.0; 
stroke:#840000; stroke-width:100; stroke-opacity:1; 
stroke-linecap:round; stroke-linejoin:round;">
</g>
<g style="fill:#840000; fill-opacity:0.0; 
stroke:#840000; stroke-width:60; stroke-opacity:1; 
stroke-linecap:round; stroke-linejoin:round;">
<text x="4330" y="33710"
textLength="570" font-size="680" lengthAdjust="spacingAndGlyphs"
text-anchor="middle" opacity="0">B</text>
<path d="M4360 33420
L4430 33440
L4460 33470
L4480 33520
L4480 33590
L4460 33640
L4430 33660
L4390 33690
L4190 33690
L4190 33180
L4360 33180
L4410 33200
L4430 33220
L4460 33270
L4460 33320
L4430 33370
L4410 33390
L4360 33420
L4190 33420
" />
</g>
<g style="fill:#840000; fill-opacity:0.0; 
stroke:#840000; stroke-width:100; stroke-opacity:1; 
stroke-linecap:round; stroke-linejoin:round;">
</g>
<g style="fill:#840000; fill-opacity:0.0; 
stroke:#840000; stroke-width:60; stroke-opacity:1; 
stroke-linecap:round; stroke-linejoin:round;">
<text x="4330" y="53400"
textLength="570" font-size="680" lengthAdjust="spacingAndGlyphs"
text-anchor="middle" opacity="0">C</text>
<path d="M4480 53330
L4460 53350
L4390 53380
L4340 53380
L4260 53350
L4220 53300
L4190 53250
L4170 53160
L4170 53080
L4190 52990
L4220 52940
L4260 52890
L4340 52870
L4390 52870
L4460 52890
L4480 52910
" />
</g>
<g style="fill:#840000; fill-opacity:0.0; 
stroke:#840000; stroke-width:100; stroke-opacity:1; 
stroke-linecap:round; stroke-linejoin:round;">
</g>
<g style="fill:#840000; fill-opacity:0.0; 
stroke:#840000; stroke-width:60; stroke-opacity:1; 
stroke-linecap:round; stroke-linejoin:round;">
<text x="4330" y="73080"
textLength="570" font-size="680" lengthAdjust="spacingAndGlyphs"
text-anchor="middle" opacity="0">D</text>
<path d="M4190 73060
L4190 72550
L4310 72550
L4390 72570
L4430 72620
L4460 72670
L4480 72760
L4480 72840
L4460 72930
L4430 72980
L4390 73030
L4310 73060
L4190 73060
" />
</g>
<g style="fill:#840000; fill-opacity:0.0; 
stroke:#840000; stroke-width:100; stroke-opacity:1; 
stroke-linecap:round; stroke-linejoin:round;">
</g>
<g style="fill:#840000; fill-opacity:0.0; 
stroke:#840000; stroke-width:60; stroke-opacity:1; 
stroke-linecap:round; stroke-linejoin:round;">
<path d="M106060 23620
L105280 23620
" />
</g>
<g style="fill:#840000; fill-opacity:0.0; 
stroke:#840000; stroke-width:100; stroke-opacity:1; 
stroke-linecap:round; stroke-linejoin:round;">
</g>
<g style="fill:#840000; fill-opacity:0.0; 
stroke:#840000; stroke-width:60; stroke-opacity:1; 
stroke-linecap:round; stroke-linejoin:round;">
<path d="M106060 43310
L105280 43310
" />
</g>
<g style="fill:#840000; fill-opacity:0.0; 
stroke:#840000; stroke-width:100; stroke-opacity:1; 
stroke-linecap:round; stroke-linejoin:round;">
</g>
<g style="fill:#840000; fill-opacity:0.0; 
stroke:#840000; stroke-width:60; stroke-opacity:1; 
stroke-linecap:round; stroke-linejoin:round;">
<path d="M106060 62990
L105280 62990
" />
</g>
<g style="fill:#840000; fill-opacity:0.0; 
stroke:#840000; stroke-width:100; stroke-opacity:1; 
stroke-linecap:round; stroke-linejoin:round;">
</g>
<g style="fill:#840000; fill-opacity:0.0; 
stroke:#840000; stroke-width:60; stroke-opacity:1; 
stroke-linecap:round; stroke-linejoin:round;">
<text x="105670" y="14030"
textLength="500" font-size="680" lengthAdjust="spacingAndGlyphs"
text-anchor="middle" opacity="0">A</text>
<path d="M105540 13860
L105790 13860
" />
<path d="M105500 14010
L105670 13500
L105840 14010
" />
</g>
<g style="fill:#840000; fill-opacity:0.0; 
stroke:#840000; stroke-width:100; stroke-opacity:1; 
stroke-linecap:round; stroke-linejoin:round;">
</g>
<g style="fill:#840000; fill-opacity:0.0; 
stroke:#840000; stroke-width:60; stroke-opacity:1; 
stroke-linecap:round; stroke-linejoin:round;">
<text x="105670" y="33710"
textLength="570" font-size="680" lengthAdjust="spacingAndGlyphs"
text-anchor="middle" opacity="0">B</text>
<path d="M105700 33420
L105770 33440
L105800 33470
L105820 33520
L105820 33590
L105800 33640
L105770 33660
L105730 33690
L105530 33690
L105530 33180
L105700 33180
L105750 33200
L105770 33220
L105800 33270
L105800 33320
L105770 33370
L105750 33390
L105700 33420
L105530 33420
" />
</g>
<g style="fill:#840000; fill-opacity:0.0; 
stroke:#840000; stroke-width:100; stroke-opacity:1; 
stroke-linecap:round; stroke-linejoin:round;">
</g>
<g style="fill:#840000; fill-opacity:0.0; 
stroke:#840000; stroke-width:60; stroke-opacity:1; 
stroke-linecap:round; stroke-linejoin:round;">
<text x="105670" y="53400"
textLength="570" font-size="680" lengthAdjust="spacingAndGlyphs"
text-anchor="middle" opacity="0">C</text>
<path d="M105820 53330
L105800 53350
L105730 53380
L105680 53380
L105600 53350
L105560 53300
L105530 53250
L105510 53160
L105510 53080
L105530 52990
L105560 52940
L105600 52890
L105680 52870
L105730 52870
L105800 52890
L105820 52910
" />
</g>
<g style="fill:#840000; fill-opacity:0.0; 
stroke:#840000; stroke-width:100; stroke-opacity:1; 
stroke-linecap:round; stroke-linejoin:round;">
</g>
<g style="fill:#840000; fill-opacity:0.0; 
stroke:#840000; stroke-width:60; stroke-opacity:1; 
stroke-linecap:round; stroke-linejoin:round;">
<text x="105670" y="73080"
textLength="570" font-size="680" lengthAdjust="spacingAndGlyphs"
text-anchor="middle" opacity="0">D</text>
<path d="M105530 73060
L105530 72550
L105650 72550
L105730 72570
L105770 72620
L105800 72670
L105820 72760
L105820 72840
L105800 72930
L105770 72980
L105730 73030
L105650 73060
L105530 73060
" />
</g>
<g style="fill:#840000; fill-opacity:0.0; 
stroke:#840000; stroke-width:100; stroke-opacity:1; 
stroke-linecap:round; stroke-linejoin:round;">
</g>
<g style="fill:#840000; fill-opacity:0.0; 
stroke:#840000; stroke-width:60; stroke-opacity:1; 
stroke-linecap:round; stroke-linejoin:round;">
<text x="71810" y="78640"
textLength="8710" font-size="780" lengthAdjust="spacingAndGlyphs"
text-anchor="start" opacity="0">Date: 2020-06-20</text>
<path d="M71980 78610
L71980 78020
L72120 78020
L72200 78050
L72260 78110
L72280 78160
L72310 78270
L72310 78360
L72280 78470
L72260 78530
L72200 78580
L72120 78610
L71980 78610
" />
<path d="M72820 78610
L72820 78300
L72790 78250
L72730 78220
L72620 78220
L72570 78250
" />
<path d="M72820 78580
L72760 78610
L72620 78610
L72570 78580
L72540 78530
L72540 78470
L72570 78420
L72620 78390
L72760 78390
L72820 78360
" />
<path d="M73020 78220
L73240 78220
" />
<path d="M73100 78020
L73100 78530
L73130 78580
L73180 78610
L73240 78610
" />
<path d="M73660 78580
L73610 78610
L73490 78610
L73440 78580
L73410 78530
L73410 78300
L73440 78250
L73490 78220
L73610 78220
L73660 78250
L73690 78300
L73690 78360
L73410 78420
" />
<path d="M73940 78560
L73970 78580
L73940 78610
L73910 78580
L73940 78560
L73940 78610
" />
<path d="M73940 78250
L73970 78270
L73940 78300
L73910 78270
L73940 78250
L73940 78300
" />
<path d="M74640 78080
L74670 78050
L74730 78020
L74870 78020
L74930 78050
L74950 78080
L74980 78130
L74980 78190
L74950 78270
L74620 78610
L74980 78610
" />
<path d="M75350 78020
L75400 78020
L75460 78050
L75490 78080
L75520 78130
L75540 78250
L75540 78390
L75520 78500
L75490 78560
L75460 78580
L75400 78610
L75350 78610
L75290 78580
L75260 78560
L75230 78500
L75210 78390
L75210 78250
L75230 78130
L75260 78080
L75290 78050
L75350 78020
" />
<path d="M75770 78080
L75800 78050
L75850 78020
L75990 78020
L76050 78050
L76080 78080
L76110 78130
L76110 78190
L76080 78270
L75740 78610
L76110 78610
" />
<path d="M76470 78020
L76530 78020
L76580 78050
L76610 78080
L76640 78130
L76670 78250
L76670 78390
L76640 78500
L76610 78560
L76580 78580
L76530 78610
L76470 78610
L76410 78580
L76390 78560
L76360 78500
L76330 78390
L76330 78250
L76360 78130
L76390 78080
L76410 78050
L76470 78020
" />
<path d="M76920 78390
L77370 78390
" />
<path d="M77760 78020
L77820 78020
L77880 78050
L77900 78080
L77930 78130
L77960 78250
L77960 78390
L77930 78500
L77900 78560
L77880 78580
L77820 78610
L77760 78610
L77710 78580
L77680 78560
L77650 78500
L77620 78390
L77620 78250
L77650 78130
L77680 78080
L77710 78050
L77760 78020
" />
<path d="M78470 78020
L78350 78020
L78300 78050
L78270 78080
L78210 78160
L78180 78270
L78180 78500
L78210 78560
L78240 78580
L78300 78610
L78410 78610
L78470 78580
L78490 78560
L78520 78500
L78520 78360
L78490 78300
L78470 78270
L78410 78250
L78300 78250
L78240 78270
L78210 78300
L78180 78360
" />
<path d="M78770 78390
L79220 78390
" />
<path d="M79480 78080
L79510 78050
L79560 78020
L79700 78020
L79760 78050
L79790 78080
L79810 78130
L79810 78190
L79790 78270
L79450 78610
L79810 78610
" />
<path d="M80180 78020
L80240 78020
L80290 78050
L80320 78080
L80350 78130
L80380 78250
L80380 78390
L80350 78500
L80320 78560
L80290 78580
L80240 78610
L80180 78610
L80120 78580
L80100 78560
L80070 78500
L80040 78390
L80040 78250
L80070 78130
L80100 78080
L80120 78050
L80180 78020
" />
</g>
<g style="fill:#840000; fill-opacity:0.0; 
stroke:#840000; stroke-width:100; stroke-opacity:1; 
stroke-linecap:round; stroke-linejoin:round;">
</g>
<g style="fill:#840000; fill-opacity:0.0; 
stroke:#840000; stroke-width:60; stroke-opacity:1; 
stroke-linecap:round; stroke-linejoin:round;">
<path d="M62760 78900
L105280 78900
" />
</g>
<g style="fill:#840000; fill-opacity:0.0; 
stroke:#840000; stroke-width:100; stroke-opacity:1; 
stroke-linecap:round; stroke-linejoin:round;">
</g>
<g style="fill:#840000; fill-opacity:0.0; 
stroke:#840000; stroke-width:60; stroke-opacity:1; 
stroke-linecap:round; stroke-linejoin:round;">
<text x="63150" y="79740"
textLength="13520" font-size="780" lengthAdjust="spacingAndGlyphs"
text-anchor="start" opacity="0">KiCad E.D.A.  kicad (5.1.6)-1</text>
<path d="M63320 79710
L63320 79120
" />
<path d="M63650 79710
L63400 79370
" />
<path d="M63650 79120
L63320 79460
" />
<path d="M63910 79710
L63910 79320
" />
<path d="M63910 79120
L63880 79150
L63910 79180
L63930 79150
L63910 79120
L63910 79180
" />
<path d="M64520 79660
L64500 79680
L64410 79710
L64360 79710
L64270 79680
L64210 79630
L64190 79570
L64160 79460
L64160 79370
L64190 79260
L64210 79210
L64270 79150
L64360 79120
L64410 79120
L64500 79150
L64520 79180
" />
<path d="M65030 79710
L65030 79400
L65000 79350
L64950 79320
L64830 79320
L64780 79350
" />
<path d="M65030 79680
L64970 79710
L64830 79710
L64780 79680
L64750 79630
L64750 79570
L64780 79520
L64830 79490
L64970 79490
L65030 79460
" />
<path d="M65560 79710
L65560 79120
" />
<path d="M65560 79680
L65510 79710
L65390 79710
L65340 79680
L65310 79660
L65280 79600
L65280 79430
L65310 79370
L65340 79350
L65390 79320
L65510 79320
L65560 79350
" />
<path d="M66290 79400
L66490 79400
" />
<path d="M66570 79710
L66290 79710
L66290 79120
L66570 79120
" />
<path d="M66830 79660
L66860 79680
L66830 79710
L66800 79680
L66830 79660
L66830 79710
" />
<path d="M67110 79710
L67110 79120
L67250 79120
L67330 79150
L67390 79210
L67420 79260
L67450 79370
L67450 79460
L67420 79570
L67390 79630
L67330 79680
L67250 79710
L67110 79710
" />
<path d="M67700 79660
L67730 79680
L67700 79710
L67670 79680
L67700 79660
L67700 79710
" />
<path d="M67950 79540
L68230 79540
" />
<path d="M67900 79710
L68090 79120
L68290 79710
" />
<path d="M68490 79660
L68510 79680
L68490 79710
L68460 79680
L68490 79660
L68490 79710
" />
<path d="M69670 79710
L69670 79120
" />
<path d="M69720 79490
L69890 79710
" />
<path d="M69890 79320
L69670 79540
" />
<path d="M70140 79710
L70140 79320
" />
<path d="M70140 79120
L70110 79150
L70140 79180
L70170 79150
L70140 79120
L70140 79180
" />
<path d="M70680 79680
L70620 79710
L70510 79710
L70450 79680
L70420 79660
L70400 79600
L70400 79430
L70420 79370
L70450 79350
L70510 79320
L70620 79320
L70680 79350
" />
<path d="M71180 79710
L71180 79400
L71150 79350
L71100 79320
L70990 79320
L70930 79350
" />
<path d="M71180 79680
L71130 79710
L70990 79710
L70930 79680
L70900 79630
L70900 79570
L70930 79520
L70990 79490
L71130 79490
L71180 79460
" />
<path d="M71720 79710
L71720 79120
" />
<path d="M71720 79680
L71660 79710
L71550 79710
L71490 79680
L71460 79660
L71440 79600
L71440 79430
L71460 79370
L71490 79350
L71550 79320
L71660 79320
L71720 79350
" />
<path d="M72620 79940
L72590 79910
L72530 79820
L72500 79770
L72470 79680
L72450 79540
L72450 79430
L72470 79290
L72500 79210
L72530 79150
L72590 79070
L72620 79040
" />
<path d="M73120 79120
L72840 79120
L72810 79400
L72840 79370
L72900 79350
L73040 79350
L73090 79370
L73120 79400
L73150 79460
L73150 79600
L73120 79660
L73090 79680
L73040 79710
L72900 79710
L72840 79680
L72810 79660
" />
<path d="M73400 79660
L73430 79680
L73400 79710
L73370 79680
L73400 79660
L73400 79710
" />
<path d="M73990 79710
L73650 79710
" />
<path d="M73820 79710
L73820 79120
L73770 79210
L73710 79260
L73650 79290
" />
<path d="M74240 79660
L74270 79680
L74240 79710
L74220 79680
L74240 79660
L74240 79710
" />
<path d="M74780 79120
L74670 79120
L74610 79150
L74580 79180
L74530 79260
L74500 79370
L74500 79600
L74530 79660
L74550 79680
L74610 79710
L74720 79710
L74780 79680
L74810 79660
L74830 79600
L74830 79460
L74810 79400
L74780 79370
L74720 79350
L74610 79350
L74550 79370
L74530 79400
L74500 79460
" />
<path d="M75030 79940
L75060 79910
L75120 79820
L75140 79770
L75170 79680
L75200 79540
L75200 79430
L75170 79290
L75140 79210
L75120 79150
L75060 79070
L75030 79040
" />
<path d="M75480 79490
L75930 79490
" />
<path d="M76520 79710
L76180 79710
" />
<path d="M76350 79710
L76350 79120
L76300 79210
L76240 79260
L76180 79290
" />
</g>
<g style="fill:#840000; fill-opacity:0.0; 
stroke:#840000; stroke-width:100; stroke-opacity:1; 
stroke-linecap:round; stroke-linejoin:round;">
</g>
<g style="fill:#840000; fill-opacity:0.0; 
stroke:#840000; stroke-width:60; stroke-opacity:1; 
stroke-linecap:round; stroke-linejoin:round;">
<path d="M62760 77720
L105280 77720
" />
</g>
<g style="fill:#840000; fill-opacity:0.0; 
stroke:#840000; stroke-width:100; stroke-opacity:1; 
stroke-linecap:round; stroke-linejoin:round;">
</g>
<g style="fill:#840000; fill-opacity:0.0; 
stroke:#840000; stroke-width:120; stroke-opacity:1; 
stroke-linecap:round; stroke-linejoin:round;">
<text x="96610" y="78640"
textLength="2340" font-size="780" lengthAdjust="spacingAndGlyphs"
text-anchor="start" opacity="0">Rev: </text>
<path d="M97160 78610
L96960 78330
" />
<path d="M96820 78610
L96820 78020
L97050 78020
L97100 78050
L97130 78080
L97160 78130
L97160 78220
L97130 78270
L97100 78300
L97050 78330
L96820 78330
" />
<path d="M97640 78580
L97580 78610
L97470 78610
L97410 78580
L97390 78530
L97390 78300
L97410 78250
L97470 78220
L97580 78220
L97640 78250
L97670 78300
L97670 78360
L97390 78420
" />
<path d="M97860 78220
L98000 78610
L98140 78220
" />
<path d="M98370 78560
L98400 78580
L98370 78610
L98340 78580
L98370 78560
L98370 78610
" />
<path d="M98370 78250
L98400 78270
L98370 78300
L98340 78270
L98370 78250
L98370 78300
" />
</g>
<g style="fill:#840000; fill-opacity:0.0; 
stroke:#840000; stroke-width:100; stroke-opacity:1; 
stroke-linecap:round; stroke-linejoin:round;">
</g>
<g style="fill:#840000; fill-opacity:0.0; 
stroke:#840000; stroke-width:60; stroke-opacity:1; 
stroke-linecap:round; stroke-linejoin:round;">
<text x="63150" y="78640"
textLength="3220" font-size="780" lengthAdjust="spacingAndGlyphs"
text-anchor="start" opacity="0">Size: A</text>
<path d="M63290 78580
L63370 78610
L63510 78610
L63570 78580
L63600 78560
L63620 78500
L63620 78440
L63600 78390
L63570 78360
L63510 78330
L63400 78300
L63340 78270
L63320 78250
L63290 78190
L63290 78130
L63320 78080
L63340 78050
L63400 78020
L63540 78020
L63620 78050
" />
<path d="M63880 78610
L63880 78220
" />
<path d="M63880 78020
L63850 78050
L63880 78080
L63910 78050
L63880 78020
L63880 78080
" />
<path d="M64100 78220
L64410 78220
L64100 78610
L64410 78610
" />
<path d="M64860 78580
L64800 78610
L64690 78610
L64640 78580
L64610 78530
L64610 78300
L64640 78250
L64690 78220
L64800 78220
L64860 78250
L64890 78300
L64890 78360
L64610 78420
" />
<path d="M65140 78560
L65170 78580
L65140 78610
L65110 78580
L65140 78560
L65140 78610
" />
<path d="M65140 78250
L65170 78270
L65140 78300
L65110 78270
L65140 78250
L65140 78300
" />
<path d="M65840 78440
L66130 78440
" />
<path d="M65790 78610
L65980 78020
L66180 78610
" />
</g>
<g style="fill:#840000; fill-opacity:0.0; 
stroke:#840000; stroke-width:100; stroke-opacity:1; 
stroke-linecap:round; stroke-linejoin:round;">
</g>
<g style="fill:#840000; fill-opacity:0.0; 
stroke:#840000; stroke-width:60; stroke-opacity:1; 
stroke-linecap:round; stroke-linejoin:round;">
<text x="96610" y="79740"
textLength="3910" font-size="780" lengthAdjust="spacingAndGlyphs"
text-anchor="start" opacity="0">Id: 6/14</text>
<path d="M96780 79710
L96780 79120
" />
<path d="M97310 79710
L97310 79120
" />
<path d="M97310 79680
L97250 79710
L97140 79710
L97080 79680
L97060 79660
L97030 79600
L97030 79430
L97060 79370
L97080 79350
L97140 79320
L97250 79320
L97310 79350
" />
<path d="M97590 79660
L97620 79680
L97590 79710
L97560 79680
L97590 79660
L97590 79710
" />
<path d="M97590 79350
L97620 79370
L97590 79400
L97560 79370
L97590 79350
L97590 79400
" />
<path d="M98570 79120
L98460 79120
L98410 79150
L98380 79180
L98320 79260
L98290 79370
L98290 79600
L98320 79660
L98350 79680
L98410 79710
L98520 79710
L98570 79680
L98600 79660
L98630 79600
L98630 79460
L98600 79400
L98570 79370
L98520 79350
L98410 79350
L98350 79370
L98320 79400
L98290 79460
" />
<path d="M99300 79090
L98800 79850
" />
<path d="M99810 79710
L99470 79710
" />
<path d="M99640 79710
L99640 79120
L99590 79210
L99530 79260
L99470 79290
" />
<path d="M100320 79320
L100320 79710
" />
<path d="M100180 79090
L100030 79520
L100400 79520
" />
</g>
<g style="fill:#840000; fill-opacity:0.0; 
stroke:#840000; stroke-width:100; stroke-opacity:1; 
stroke-linecap:round; stroke-linejoin:round;">
</g>
<g style="fill:#840000; fill-opacity:0.0; 
stroke:#840000; stroke-width:60; stroke-opacity:1; 
stroke-linecap:round; stroke-linejoin:round;">
<path d="M62760 76140
L105280 76140
" />
</g>
<g style="fill:#840000; fill-opacity:0.0; 
stroke:#840000; stroke-width:100; stroke-opacity:1; 
stroke-linecap:round; stroke-linejoin:round;">
</g>
<g style="fill:#840000; fill-opacity:0.0; 
stroke:#840000; stroke-width:160; stroke-opacity:1; 
stroke-linecap:round; stroke-linejoin:round;">
<text x="63150" y="77240"
textLength="13420" font-size="1050" lengthAdjust="spacingAndGlyphs"
text-anchor="start" opacity="0">Title: Flip Pixel Board</text>
<path d="M63430 76410
L63880 76410
" />
<path d="M63550 77200
L63650 76410
" />
<path d="M64040 77200
L64110 76680
" />
<path d="M64140 76410
L64100 76450
L64130 76490
L64180 76450
L64140 76410
L64130 76490
" />
<path d="M64370 76680
L64670 76680
" />
<path d="M64520 76410
L64430 77090
L64460 77160
L64530 77200
L64610 77200
" />
<path d="M64980 77200
L64910 77160
L64890 77090
L64970 76410
" />
<path d="M65590 77160
L65510 77200
L65360 77200
L65290 77160
L65260 77090
L65300 76790
L65350 76710
L65430 76680
L65580 76680
L65650 76710
L65680 76790
L65670 76860
L65280 76940
" />
<path d="M65970 77130
L66000 77160
L65960 77200
L65930 77160
L65970 77130
L65960 77200
" />
<path d="M66020 76710
L66060 76750
L66010 76790
L65980 76750
L66020 76710
L66010 76790
" />
<path d="M67260 76790
L66990 76790
" />
<path d="M66940 77200
L67040 76410
L67420 76410
" />
<path d="M67730 77200
L67660 77160
L67630 77090
L67720 76410
" />
<path d="M68030 77200
L68100 76680
" />
<path d="M68130 76410
L68090 76450
L68120 76490
L68160 76450
L68130 76410
L68120 76490
" />
<path d="M68470 76680
L68370 77470
" />
<path d="M68470 76710
L68550 76680
L68700 76680
L68770 76710
L68800 76750
L68830 76830
L68800 77050
L68760 77130
L68710 77160
L68630 77200
L68480 77200
L68410 77160
" />
<path d="M69720 77200
L69820 76410
L70120 76410
L70190 76450
L70230 76490
L70260 76560
L70240 76680
L70190 76750
L70150 76790
L70070 76830
L69770 76830
" />
<path d="M70510 77200
L70580 76680
" />
<path d="M70610 76410
L70570 76450
L70600 76490
L70650 76450
L70610 76410
L70600 76490
" />
<path d="M70820 77200
L71290 76680
" />
<path d="M70880 76680
L71230 77200
" />
<path d="M71840 77160
L71760 77200
L71610 77200
L71530 77160
L71510 77090
L71540 76790
L71590 76710
L71670 76680
L71820 76680
L71890 76710
L71920 76790
L71910 76860
L71530 76940
" />
<path d="M72320 77200
L72250 77160
L72220 77090
L72310 76410
" />
<path d="M73540 76790
L73650 76830
L73680 76860
L73710 76940
L73690 77050
L73650 77130
L73600 77160
L73520 77200
L73220 77200
L73320 76410
L73580 76410
L73660 76450
L73690 76490
L73720 76560
L73710 76640
L73660 76710
L73620 76750
L73540 76790
L73270 76790
" />
<path d="M74130 77200
L74060 77160
L74020 77130
L73990 77050
L74020 76830
L74070 76750
L74110 76710
L74190 76680
L74300 76680
L74370 76710
L74410 76750
L74440 76830
L74410 77050
L74360 77130
L74320 77160
L74240 77200
L74130 77200
" />
<path d="M75070 77200
L75120 76790
L75090 76710
L75020 76680
L74870 76680
L74790 76710
" />
<path d="M75070 77160
L74990 77200
L74800 77200
L74730 77160
L74700 77090
L74710 77010
L74760 76940
L74840 76900
L75030 76900
L75110 76860
" />
<path d="M75440 77200
L75510 76680
" />
<path d="M75490 76830
L75540 76750
L75580 76710
L75660 76680
L75730 76680
" />
<path d="M76270 77200
L76370 76410
" />
<path d="M76270 77160
L76190 77200
L76040 77200
L75970 77160
L75940 77130
L75910 77050
L75940 76830
L75990 76750
L76030 76710
L76110 76680
L76260 76680
L76330 76710
" />
</g>
<g style="fill:#840000; fill-opacity:0.0; 
stroke:#840000; stroke-width:100; stroke-opacity:1; 
stroke-linecap:round; stroke-linejoin:round;">
</g>
<g style="fill:#840000; fill-opacity:0.0; 
stroke:#840000; stroke-width:60; stroke-opacity:1; 
stroke-linecap:round; stroke-linejoin:round;">
<text x="63150" y="75720"
textLength="8950" font-size="780" lengthAdjust="spacingAndGlyphs"
text-anchor="start" opacity="0">File: HalfBridge.sch</text>
<path d="M63510 75380
L63320 75380
" />
<path d="M63320 75690
L63320 75100
L63600 75100
" />
<path d="M63820 75690
L63820 75300
" />
<path d="M63820 75100
L63790 75130
L63820 75160
L63850 75130
L63820 75100
L63820 75160
" />
<path d="M64190 75690
L64130 75660
L64100 75610
L64100 75100
" />
<path d="M64640 75660
L64580 75690
L64470 75690
L64410 75660
L64380 75610
L64380 75380
L64410 75330
L64470 75300
L64580 75300
L64640 75330
L64660 75380
L64660 75440
L64380 75500
" />
<path d="M64920 75640
L64950 75660
L64920 75690
L64890 75660
L64920 75640
L64920 75690
" />
<path d="M64920 75330
L64950 75350
L64920 75380
L64890 75350
L64920 75330
L64920 75380
" />
<path d="M65650 75690
L65650 75100
" />
<path d="M65650 75380
L65980 75380
" />
<path d="M65980 75690
L65980 75100
" />
<path d="M66520 75690
L66520 75380
L66490 75330
L66430 75300
L66320 75300
L66270 75330
" />
<path d="M66520 75660
L66460 75690
L66320 75690
L66270 75660
L66240 75610
L66240 75550
L66270 75500
L66320 75470
L66460 75470
L66520 75440
" />
<path d="M66880 75690
L66830 75660
L66800 75610
L66800 75100
" />
<path d="M67020 75300
L67250 75300
" />
<path d="M67110 75690
L67110 75190
L67140 75130
L67190 75100
L67250 75100
" />
<path d="M67640 75380
L67730 75410
L67750 75440
L67780 75500
L67780 75580
L67750 75640
L67730 75660
L67670 75690
L67450 75690
L67450 75100
L67640 75100
L67700 75130
L67730 75160
L67750 75210
L67750 75270
L67730 75330
L67700 75350
L67640 75380
L67450 75380
" />
<path d="M68040 75690
L68040 75300
" />
<path d="M68040 75410
L68060 75350
L68090 75330
L68150 75300
L68200 75300
" />
<path d="M68400 75690
L68400 75300
" />
<path d="M68400 75100
L68370 75130
L68400 75160
L68430 75130
L68400 75100
L68400 75160
" />
<path d="M68930 75690
L68930 75100
" />
<path d="M68930 75660
L68880 75690
L68770 75690
L68710 75660
L68680 75640
L68650 75580
L68650 75410
L68680 75350
L68710 75330
L68770 75300
L68880 75300
L68930 75330
" />
<path d="M69470 75300
L69470 75780
L69440 75830
L69410 75860
L69360 75890
L69270 75890
L69220 75860
" />
<path d="M69470 75660
L69410 75690
L69300 75690
L69240 75660
L69220 75640
L69190 75580
L69190 75410
L69220 75350
L69240 75330
L69300 75300
L69410 75300
L69470 75330
" />
<path d="M69970 75660
L69920 75690
L69810 75690
L69750 75660
L69720 75610
L69720 75380
L69750 75330
L69810 75300
L69920 75300
L69970 75330
L70000 75380
L70000 75440
L69720 75500
" />
<path d="M70260 75640
L70280 75660
L70260 75690
L70230 75660
L70260 75640
L70260 75690
" />
<path d="M70510 75660
L70560 75690
L70680 75690
L70730 75660
L70760 75610
L70760 75580
L70730 75520
L70680 75500
L70590 75500
L70540 75470
L70510 75410
L70510 75380
L70540 75330
L70590 75300
L70680 75300
L70730 75330
" />
<path d="M71270 75660
L71210 75690
L71100 75690
L71040 75660
L71010 75640
L70990 75580
L70990 75410
L71010 75350
L71040 75330
L71100 75300
L71210 75300
L71270 75330
" />
<path d="M71520 75690
L71520 75100
" />
<path d="M71770 75690
L71770 75380
L71740 75330
L71690 75300
L71600 75300
L71550 75330
L71520 75350
" />
</g>
<g style="fill:#840000; fill-opacity:0.0; 
stroke:#840000; stroke-width:100; stroke-opacity:1; 
stroke-linecap:round; stroke-linejoin:round;">
</g>
<g style="fill:#840000; fill-opacity:0.0; 
stroke:#840000; stroke-width:60; stroke-opacity:1; 
stroke-linecap:round; stroke-linejoin:round;">
<path d="M62760 73780
L105280 73780
" />
</g>
<g style="fill:#840000; fill-opacity:0.0; 
stroke:#840000; stroke-width:100; stroke-opacity:1; 
stroke-linecap:round; stroke-linejoin:round;">
</g>
<g style="fill:#840000; fill-opacity:0.0; 
stroke:#840000; stroke-width:60; stroke-opacity:1; 
stroke-linecap:round; stroke-linejoin:round;">
<text x="63150" y="74660"
textLength="6770" font-size="780" lengthAdjust="spacingAndGlyphs"
text-anchor="start" opacity="0">Sheet: /Row4/</text>
<path d="M63290 74600
L63370 74630
L63510 74630
L63570 74600
L63600 74580
L63620 74520
L63620 74460
L63600 74410
L63570 74380
L63510 74350
L63400 74320
L63340 74290
L63320 74270
L63290 74210
L63290 74150
L63320 74100
L63340 74070
L63400 74040
L63540 74040
L63620 74070
" />
<path d="M63880 74630
L63880 74040
" />
<path d="M64130 74630
L64130 74320
L64100 74270
L64050 74240
L63960 74240
L63910 74270
L63880 74290
" />
<path d="M64640 74600
L64580 74630
L64470 74630
L64410 74600
L64380 74550
L64380 74320
L64410 74270
L64470 74240
L64580 74240
L64640 74270
L64660 74320
L64660 74380
L64380 74440
" />
<path d="M65140 74600
L65090 74630
L64970 74630
L64920 74600
L64890 74550
L64890 74320
L64920 74270
L64970 74240
L65090 74240
L65140 74270
L65170 74320
L65170 74380
L64890 74440
" />
<path d="M65340 74240
L65560 74240
" />
<path d="M65420 74040
L65420 74550
L65450 74600
L65510 74630
L65560 74630
" />
<path d="M65760 74580
L65790 74600
L65760 74630
L65730 74600
L65760 74580
L65760 74630
" />
<path d="M65760 74270
L65790 74290
L65760 74320
L65730 74290
L65760 74270
L65760 74320
" />
<path d="M66910 74010
L66410 74770
" />
<path d="M67450 74630
L67250 74350
" />
<path d="M67110 74630
L67110 74040
L67330 74040
L67390 74070
L67420 74100
L67450 74150
L67450 74240
L67420 74290
L67390 74320
L67330 74350
L67110 74350
" />
<path d="M67780 74630
L67730 74600
L67700 74580
L67670 74520
L67670 74350
L67700 74290
L67730 74270
L67780 74240
L67870 74240
L67920 74270
L67950 74290
L67980 74350
L67980 74520
L67950 74580
L67920 74600
L67870 74630
L67780 74630
" />
<path d="M68180 74240
L68290 74630
L68400 74350
L68510 74630
L68630 74240
" />
<path d="M69100 74240
L69100 74630
" />
<path d="M68960 74010
L68820 74440
L69190 74440
" />
<path d="M69830 74010
L69330 74770
" />
</g>
<g style="fill:#840000; fill-opacity:0.0; 
stroke:#840000; stroke-width:100; stroke-opacity:1; 
stroke-linecap:round; stroke-linejoin:round;">
</g>
<g style="fill:#840000; fill-opacity:0.0; 
stroke:#840000; stroke-width:60; stroke-opacity:1; 
stroke-linecap:round; stroke-linejoin:round;">
<path d="M70630 77720
L70630 78900
" />
</g>
<g style="fill:#840000; fill-opacity:0.0; 
stroke:#840000; stroke-width:100; stroke-opacity:1; 
stroke-linecap:round; stroke-linejoin:round;">
</g>
<g style="fill:#840000; fill-opacity:0.0; 
stroke:#840000; stroke-width:60; stroke-opacity:1; 
stroke-linecap:round; stroke-linejoin:round;">
<path d="M95830 77720
L95830 80280
" />
</g>
<g style="fill:#840000; fill-opacity:0.0; 
stroke:#840000; stroke-width:0; stroke-opacity:1; 
stroke-linecap:round; stroke-linejoin:round;">
<g >
</g>
<g style="fill:#840000; fill-opacity:0.0; 
stroke:#840000; stroke-width:100; stroke-opacity:1; 
stroke-linecap:round; stroke-linejoin:round;">
<rect x="52600" y="34000" width="800" height="2000" rx="0" />
</g>
<g style="fill:#840000; fill-opacity:0.0; 
stroke:#840000; stroke-width:60; stroke-opacity:1; 
stroke-linecap:round; stroke-linejoin:round;">
<path d="M53000 34000
L53000 33500
" />
<path d="M53000 36000
L53000 36500
" />
</g>
<g style="fill:#008484; fill-opacity:0.0; 
stroke:#008484; stroke-width:60; stroke-opacity:1; 
stroke-linecap:round; stroke-linejoin:round;">
<text x="51750" y="34770"
textLength="1510" font-size="660" lengthAdjust="spacingAndGlyphs"
text-anchor="middle" opacity="0">R10</text>
<path d="M51420 34740
L51260 34500
" />
<path d="M51140 34740
L51140 34240
L51330 34240
L51380 34270
L51400 34290
L51420 34340
L51420 34410
L51400 34460
L51380 34480
L51330 34500
L51140 34500
" />
<path d="M51900 34740
L51610 34740
" />
<path d="M51760 34740
L51760 34240
L51710 34310
L51660 34360
L51610 34380
" />
<path d="M52210 34240
L52260 34240
L52300 34270
L52330 34290
L52350 34340
L52380 34430
L52380 34550
L52350 34650
L52330 34690
L52300 34720
L52260 34740
L52210 34740
L52160 34720
L52140 34690
L52110 34650
L52090 34550
L52090 34430
L52110 34340
L52140 34290
L52160 34270
L52210 34240
" />
<text x="51780" y="35770"
textLength="560" font-size="660" lengthAdjust="spacingAndGlyphs"
text-anchor="middle" opacity="0">R</text>
<path d="M51930 35740
L51760 35500
" />
<path d="M51640 35740
L51640 35240
L51830 35240
L51880 35270
L51910 35290
L51930 35340
L51930 35410
L51910 35460
L51880 35480
L51830 35500
L51640 35500
" />
</g>
</g>
<g style="fill:#008484; fill-opacity:0.0; 
stroke:#008484; stroke-width:0; stroke-opacity:1; 
stroke-linecap:round; stroke-linejoin:round;">
<g >
</g>
<g style="fill:#840000; fill-opacity:0.0; 
stroke:#840000; stroke-width:0; stroke-opacity:1; 
stroke-linecap:round; stroke-linejoin:round;">
</g>
<g style="fill:#840000; fill-opacity:0.0; 
stroke:#840000; stroke-width:100; stroke-opacity:1; 
stroke-linecap:round; stroke-linejoin:round;">
<circle cx="60650" cy="27500" r="1110" /> 
</g>
<g style="fill:#840000; fill-opacity:1.0; 
stroke:#840000; stroke-width:60; stroke-opacity:1; 
stroke-linecap:round; stroke-linejoin:round;">
<circle cx="61000" cy="28200" r="110" /> 
<circle cx="61000" cy="26800" r="110" /> 
</g>
<g style="fill:#840000; fill-opacity:0.0; 
stroke:#840000; stroke-width:60; stroke-opacity:1; 
stroke-linecap:round; stroke-linejoin:round;">
<path style="fill:#840000; fill-opacity:0.0; 
stroke:#840000; stroke-width:60; stroke-opacity:1; 
stroke-linecap:round; stroke-linejoin:round;fill:none"
d="M 62000,26500
61000,26500
" /> 
<path style="fill:#840000; fill-opacity:0.0; 
stroke:#840000; stroke-width:60; stroke-opacity:1; 
stroke-linecap:round; stroke-linejoin:round;fill:none"
d="M 60020,27500
60100,27500
" /> 
<path style="fill:#840000; fill-opacity:0.0; 
stroke:#840000; stroke-width:60; stroke-opacity:1; 
stroke-linecap:round; stroke-linejoin:round;fill:none"
d="M 60300,28200
61000,28200
" /> 
</g>
<g style="fill:#840000; fill-opacity:0.0; 
stroke:#840000; stroke-width:100; stroke-opacity:1; 
stroke-linecap:round; stroke-linejoin:round;">
<path style="fill:#840000; fill-opacity:0.0; 
stroke:#840000; stroke-width:100; stroke-opacity:1; 
stroke-linecap:round; stroke-linejoin:round;fill:none"
d="M 60300,28000
60300,28400
" /> 
</g>
<g style="fill:#840000; fill-opacity:0.0; 
stroke:#840000; stroke-width:60; stroke-opacity:1; 
stroke-linecap:round; stroke-linejoin:round;">
<path style="fill:#840000; fill-opacity:0.0; 
stroke:#840000; stroke-width:60; stroke-opacity:1; 
stroke-linecap:round; stroke-linejoin:round;fill:none"
d="M 60300,27500
61000,27500
" /> 
</g>
<g style="fill:#840000; fill-opacity:0.0; 
stroke:#840000; stroke-width:100; stroke-opacity:1; 
stroke-linecap:round; stroke-linejoin:round;">
<path style="fill:#840000; fill-opacity:0.0; 
stroke:#840000; stroke-width:100; stroke-opacity:1; 
stroke-linecap:round; stroke-linejoin:round;fill:none"
d="M 60300,27300
60300,27700
" /> 
</g>
<g style="fill:#840000; fill-opacity:0.0; 
stroke:#840000; stroke-width:60; stroke-opacity:1; 
stroke-linecap:round; stroke-linejoin:round;">
<path style="fill:#840000; fill-opacity:0.0; 
stroke:#840000; stroke-width:60; stroke-opacity:1; 
stroke-linecap:round; stroke-linejoin:round;fill:none"
d="M 60300,26800
61000,26800
" /> 
</g>
<g style="fill:#840000; fill-opacity:0.0; 
stroke:#840000; stroke-width:100; stroke-opacity:1; 
stroke-linecap:round; stroke-linejoin:round;">
<path style="fill:#840000; fill-opacity:0.0; 
stroke:#840000; stroke-width:100; stroke-opacity:1; 
stroke-linecap:round; stroke-linejoin:round;fill:none"
d="M 60300,26600
60300,27000
" /> 
</g>
<g style="fill:#840000; fill-opacity:0.0; 
stroke:#840000; stroke-width:60; stroke-opacity:1; 
stroke-linecap:round; stroke-linejoin:round;">
<path style="fill:#840000; fill-opacity:0.0; 
stroke:#840000; stroke-width:60; stroke-opacity:1; 
stroke-linecap:round; stroke-linejoin:round;fill:none"
d="M 61000,28200
61000,28500
" /> 
<path style="fill:#840000; fill-opacity:0.0; 
stroke:#840000; stroke-width:60; stroke-opacity:1; 
stroke-linecap:round; stroke-linejoin:round;fill:none"
d="M 61000,28200
61000,27500
" /> 
<path style="fill:#840000; fill-opacity:0.0; 
stroke:#840000; stroke-width:60; stroke-opacity:1; 
stroke-linecap:round; stroke-linejoin:round;fill:none"
d="M 61000,26500
61000,26800
" /> 
</g>
<g style="fill:#840000; fill-opacity:0.0; 
stroke:#840000; stroke-width:100; stroke-opacity:1; 
stroke-linecap:round; stroke-linejoin:round;">
<path style="fill:#840000; fill-opacity:0.0; 
stroke:#840000; stroke-width:100; stroke-opacity:1; 
stroke-linecap:round; stroke-linejoin:round;fill:none"
d="M 60100,26750
60100,28250
60100,28250
" /> 
</g>
<g style="fill:#840000; fill-opacity:1.0; 
stroke:#840000; stroke-width:60; stroke-opacity:1; 
stroke-linecap:round; stroke-linejoin:round;">
<path style="fill:#840000; fill-opacity:1.0; 
stroke:#840000; stroke-width:60; stroke-opacity:1; 
stroke-linecap:round; stroke-linejoin:round;fill-rule:evenodd;"
d="M 60400,27500
60800,27350
60800,27650
Z" /> 
</g>
<g style="fill:#840000; fill-opacity:0.0; 
stroke:#840000; stroke-width:60; stroke-opacity:1; 
stroke-linecap:round; stroke-linejoin:round;">
<path style="fill:#840000; fill-opacity:0.0; 
stroke:#840000; stroke-width:60; stroke-opacity:1; 
stroke-linecap:round; stroke-linejoin:round;fill:none"
d="M 61000,28200
61300,28200
61300,26800
61000,26800
" /> 
<path style="fill:#840000; fill-opacity:0.0; 
stroke:#840000; stroke-width:60; stroke-opacity:1; 
stroke-linecap:round; stroke-linejoin:round;fill:none"
d="M 61100,27300
61150,27350
61450,27350
61500,27400
" /> 
<path style="fill:#840000; fill-opacity:0.0; 
stroke:#840000; stroke-width:60; stroke-opacity:1; 
stroke-linecap:round; stroke-linejoin:round;fill:none"
d="M 61300,27350
61150,27600
61450,27600
Z" /> 
<path d="M61000 28500
L61000 29500
" />
<g transform="rotate(-90 60900 29000)">
<text x="60900" y="29000"
textLength="540" font-size="660" lengthAdjust="spacingAndGlyphs"
text-anchor="middle" opacity="0">1</text>
</g>
<path d="M60870 28850
L60870 29140
" />
<path d="M60870 29000
L60370 29000
L60440 29040
L60490 29090
L60510 29140
" />
<path d="M60000 27500
L58000 27500
" />
<text x="59000" y="27400"
textLength="540" font-size="660" lengthAdjust="spacingAndGlyphs"
text-anchor="middle" opacity="0">2</text>
<path d="M58850 26920
L58880 26900
L58920 26870
L59040 26870
L59090 26900
L59110 26920
L59140 26970
L59140 27010
L59110 27090
L58830 27370
L59140 27370
" />
<path d="M61000 26500
L61000 25500
" />
<g transform="rotate(-90 60900 26000)">
<text x="60900" y="26000"
textLength="540" font-size="660" lengthAdjust="spacingAndGlyphs"
text-anchor="middle" opacity="0">7</text>
</g>
<path d="M60370 26160
L60370 25830
L60870 26040
" />
<path d="M62000 26500
L62000 25500
" />
<g transform="rotate(-90 61900 26000)">
<text x="61900" y="26000"
textLength="540" font-size="660" lengthAdjust="spacingAndGlyphs"
text-anchor="middle" opacity="0">8</text>
</g>
<path d="M61590 26040
L61560 26090
L61540 26110
L61490 26140
L61470 26140
L61420 26110
L61400 26090
L61370 26040
L61370 25950
L61400 25900
L61420 25880
L61470 25850
L61490 25850
L61540 25880
L61560 25900
L61590 25950
L61590 26040
L61610 26090
L61630 26110
L61680 26140
L61780 26140
L61820 26110
L61850 26090
L61870 26040
L61870 25950
L61850 25900
L61820 25880
L61780 25850
L61680 25850
L61630 25880
L61610 25900
L61590 25950
" />
</g>
<g style="fill:#008484; fill-opacity:0.0; 
stroke:#008484; stroke-width:60; stroke-opacity:1; 
stroke-linecap:round; stroke-linejoin:round;">
<text x="63420" y="27310"
textLength="1960" font-size="660" lengthAdjust="spacingAndGlyphs"
text-anchor="middle" opacity="0">Q13A</text>
<path d="M62920 27330
L62870 27310
L62820 27260
L62750 27190
L62700 27160
L62650 27160
" />
<path d="M62680 27280
L62630 27260
L62580 27210
L62560 27110
L62560 26950
L62580 26850
L62630 26810
L62680 26780
L62770 26780
L62820 26810
L62870 26850
L62890 26950
L62890 27110
L62870 27210
L62820 27260
L62770 27280
L62680 27280
" />
<path d="M63370 27280
L63080 27280
" />
<path d="M63220 27280
L63220 26780
L63180 26850
L63130 26900
L63080 26920
" />
<path d="M63530 26780
L63840 26780
L63680 26970
L63750 26970
L63800 27000
L63820 27020
L63840 27070
L63840 27190
L63820 27230
L63800 27260
L63750 27280
L63610 27280
L63560 27260
L63530 27230
" />
<path d="M64030 27140
L64270 27140
" />
<path d="M63990 27280
L64150 26780
L64320 27280
" />
<text x="65240" y="28220"
textLength="5610" font-size="660" lengthAdjust="spacingAndGlyphs"
text-anchor="middle" opacity="0">STS8DN6LF6AG</text>
<path d="M62560 28170
L62630 28190
L62750 28190
L62790 28170
L62820 28140
L62840 28100
L62840 28050
L62820 28000
L62790 27980
L62750 27950
L62650 27930
L62600 27910
L62580 27880
L62560 27830
L62560 27790
L62580 27740
L62600 27720
L62650 27690
L62770 27690
L62840 27720
" />
<path d="M62990 27690
L63270 27690
" />
<path d="M63130 28190
L63130 27690
" />
<path d="M63410 28170
L63490 28190
L63600 28190
L63650 28170
L63680 28140
L63700 28100
L63700 28050
L63680 28000
L63650 27980
L63600 27950
L63510 27930
L63460 27910
L63440 27880
L63410 27830
L63410 27790
L63440 27740
L63460 27720
L63510 27690
L63630 27690
L63700 27720
" />
<path d="M63990 27910
L63940 27880
L63910 27860
L63890 27810
L63890 27790
L63910 27740
L63940 27720
L63990 27690
L64080 27690
L64130 27720
L64150 27740
L64180 27790
L64180 27810
L64150 27860
L64130 27880
L64080 27910
L63990 27910
L63940 27930
L63910 27950
L63890 28000
L63890 28100
L63910 28140
L63940 28170
L63990 28190
L64080 28190
L64130 28170
L64150 28140
L64180 28100
L64180 28000
L64150 27950
L64130 27930
L64080 27910
" />
<path d="M64390 28190
L64390 27690
L64510 27690
L64580 27720
L64630 27760
L64650 27810
L64680 27910
L64680 27980
L64650 28070
L64630 28120
L64580 28170
L64510 28190
L64390 28190
" />
<path d="M64890 28190
L64890 27690
L65180 28190
L65180 27690
" />
<path d="M65630 27690
L65530 27690
L65490 27720
L65460 27740
L65410 27810
L65390 27910
L65390 28100
L65410 28140
L65440 28170
L65490 28190
L65580 28190
L65630 28170
L65650 28140
L65680 28100
L65680 27980
L65650 27930
L65630 27910
L65580 27880
L65490 27880
L65440 27910
L65410 27930
L65390 27980
" />
<path d="M66130 28190
L65890 28190
L65890 27690
" />
<path d="M66460 27930
L66290 27930
" />
<path d="M66290 28190
L66290 27690
L66530 27690
" />
<path d="M66940 27690
L66840 27690
L66790 27720
L66770 27740
L66720 27810
L66700 27910
L66700 28100
L66720 28140
L66750 28170
L66790 28190
L66890 28190
L66940 28170
L66960 28140
L66990 28100
L66990 27980
L66960 27930
L66940 27910
L66890 27880
L66790 27880
L66750 27910
L66720 27930
L66700 27980
" />
<path d="M67180 28050
L67410 28050
" />
<path d="M67130 28190
L67290 27690
L67460 28190
" />
<path d="M67890 27720
L67840 27690
L67770 27690
L67700 27720
L67650 27760
L67630 27810
L67600 27910
L67600 27980
L67630 28070
L67650 28120
L67700 28170
L67770 28190
L67820 28190
L67890 28170
L67910 28140
L67910 27980
L67820 27980
" />
</g>
<g style="fill:#840084; fill-opacity:0.0; 
stroke:#840084; stroke-width:60; stroke-opacity:1; 
stroke-linecap:round; stroke-linejoin:round;">
<text x="60500" y="46270"
textLength="27440" font-size="660" lengthAdjust="spacingAndGlyphs"
text-anchor="middle" opacity="0">https://www.mouser.com/datasheet/2/389/sts8dn6lf6ag-1114209.pdf</text>
<path d="M46920 46240
L46920 45740
" />
<path d="M47140 46240
L47140 45980
L47110 45930
L47070 45910
L47000 45910
L46950 45930
L46920 45960
" />
<path d="M47300 45910
L47500 45910
" />
<path d="M47380 45740
L47380 46170
L47400 46220
L47450 46240
L47500 46240
" />
<path d="M47590 45910
L47780 45910
" />
<path d="M47660 45740
L47660 46170
L47690 46220
L47730 46240
L47780 46240
" />
<path d="M47950 45910
L47950 46410
" />
<path d="M47950 45930
L48000 45910
L48090 45910
L48140 45930
L48160 45960
L48190 46000
L48190 46150
L48160 46190
L48140 46220
L48090 46240
L48000 46240
L47950 46220
" />
<path d="M48380 46220
L48420 46240
L48520 46240
L48570 46220
L48590 46170
L48590 46150
L48570 46100
L48520 46070
L48450 46070
L48400 46050
L48380 46000
L48380 45980
L48400 45930
L48450 45910
L48520 45910
L48570 45930
" />
<path d="M48800 46190
L48830 46220
L48800 46240
L48780 46220
L48800 46190
L48800 46240
" />
<path d="M48800 45930
L48830 45960
L48800 45980
L48780 45960
L48800 45930
L48800 45980
" />
<path d="M49400 45720
L48970 46360
" />
<path d="M49920 45720
L49500 46360
" />
<path d="M50040 45910
L50140 46240
L50230 46000
L50330 46240
L50420 45910
" />
<path d="M50570 45910
L50660 46240
L50760 46000
L50850 46240
L50950 45910
" />
<path d="M51090 45910
L51190 46240
L51280 46000
L51380 46240
L51470 45910
" />
<path d="M51660 46190
L51690 46220
L51660 46240
L51640 46220
L51660 46190
L51660 46240
" />
<path d="M51900 46240
L51900 45910
" />
<path d="M51900 45960
L51920 45930
L51970 45910
L52040 45910
L52090 45930
L52110 45980
L52110 46240
" />
<path d="M52110 45980
L52140 45930
L52190 45910
L52260 45910
L52300 45930
L52330 45980
L52330 46240
" />
<path d="M52640 46240
L52590 46220
L52570 46190
L52540 46150
L52540 46000
L52570 45960
L52590 45930
L52640 45910
L52710 45910
L52760 45930
L52780 45960
L52800 46000
L52800 46150
L52780 46190
L52760 46220
L52710 46240
L52640 46240
" />
<path d="M53230 45910
L53230 46240
" />
<path d="M53020 45910
L53020 46170
L53040 46220
L53090 46240
L53160 46240
L53210 46220
L53230 46190
" />
<path d="M53450 46220
L53500 46240
L53590 46240
L53640 46220
L53660 46170
L53660 46150
L53640 46100
L53590 46070
L53520 46070
L53470 46050
L53450 46000
L53450 45980
L53470 45930
L53520 45910
L53590 45910
L53640 45930
" />
<path d="M54070 46220
L54020 46240
L53920 46240
L53880 46220
L53850 46170
L53850 45980
L53880 45930
L53920 45910
L54020 45910
L54070 45930
L54090 45980
L54090 46030
L53850 46070
" />
<path d="M54300 46240
L54300 45910
" />
<path d="M54300 46000
L54330 45960
L54350 45930
L54400 45910
L54450 45910
" />
<path d="M54610 46190
L54640 46220
L54610 46240
L54590 46220
L54610 46190
L54610 46240
" />
<path d="M55070 46220
L55020 46240
L54920 46240
L54880 46220
L54850 46190
L54830 46150
L54830 46000
L54850 45960
L54880 45930
L54920 45910
L55020 45910
L55070 45930
" />
<path d="M55350 46240
L55300 46220
L55280 46190
L55260 46150
L55260 46000
L55280 45960
L55300 45930
L55350 45910
L55420 45910
L55470 45930
L55500 45960
L55520 46000
L55520 46150
L55500 46190
L55470 46220
L55420 46240
L55350 46240
" />
<path d="M55730 46240
L55730 45910
" />
<path d="M55730 45960
L55760 45930
L55800 45910
L55880 45910
L55920 45930
L55950 45980
L55950 46240
" />
<path d="M55950 45980
L55970 45930
L56020 45910
L56090 45910
L56140 45930
L56160 45980
L56160 46240
" />
<path d="M56760 45720
L56330 46360
" />
<path d="M57140 46240
L57140 45740
" />
<path d="M57140 46220
L57090 46240
L57000 46240
L56950 46220
L56920 46190
L56900 46150
L56900 46000
L56920 45960
L56950 45930
L57000 45910
L57090 45910
L57140 45930
" />
<path d="M57590 46240
L57590 45980
L57570 45930
L57520 45910
L57420 45910
L57380 45930
" />
<path d="M57590 46220
L57540 46240
L57420 46240
L57380 46220
L57350 46170
L57350 46120
L57380 46070
L57420 46050
L57540 46050
L57590 46030
" />
<path d="M57760 45910
L57950 45910
" />
<path d="M57830 45740
L57830 46170
L57850 46220
L57900 46240
L57950 46240
" />
<path d="M58330 46240
L58330 45980
L58300 45930
L58260 45910
L58160 45910
L58110 45930
" />
<path d="M58330 46220
L58280 46240
L58160 46240
L58110 46220
L58090 46170
L58090 46120
L58110 46070
L58160 46050
L58280 46050
L58330 46030
" />
<path d="M58540 46220
L58590 46240
L58690 46240
L58730 46220
L58760 46170
L58760 46150
L58730 46100
L58690 46070
L58610 46070
L58570 46050
L58540 46000
L58540 45980
L58570 45930
L58610 45910
L58690 45910
L58730 45930
" />
<path d="M58970 46240
L58970 45740
" />
<path d="M59190 46240
L59190 45980
L59160 45930
L59110 45910
L59040 45910
L59000 45930
L58970 45960
" />
<path d="M59610 46220
L59570 46240
L59470 46240
L59420 46220
L59400 46170
L59400 45980
L59420 45930
L59470 45910
L59570 45910
L59610 45930
L59640 45980
L59640 46030
L59400 46070
" />
<path d="M60040 46220
L60000 46240
L59900 46240
L59850 46220
L59830 46170
L59830 45980
L59850 45930
L59900 45910
L60000 45910
L60040 45930
L60070 45980
L60070 46030
L59830 46070
" />
<path d="M60210 45910
L60400 45910
" />
<path d="M60280 45740
L60280 46170
L60300 46220
L60350 46240
L60400 46240
" />
<path d="M60920 45720
L60500 46360
" />
<path d="M61070 45790
L61090 45770
L61140 45740
L61260 45740
L61300 45770
L61330 45790
L61350 45840
L61350 45880
L61330 45960
L61040 46240
L61350 46240
" />
<path d="M61920 45720
L61500 46360
" />
<path d="M62040 45740
L62350 45740
L62190 45930
L62260 45930
L62300 45960
L62330 45980
L62350 46030
L62350 46150
L62330 46190
L62300 46220
L62260 46240
L62110 46240
L62070 46220
L62040 46190
" />
<path d="M62640 45960
L62590 45930
L62570 45910
L62540 45860
L62540 45840
L62570 45790
L62590 45770
L62640 45740
L62730 45740
L62780 45770
L62800 45790
L62830 45840
L62830 45860
L62800 45910
L62780 45930
L62730 45960
L62640 45960
L62590 45980
L62570 46000
L62540 46050
L62540 46150
L62570 46190
L62590 46220
L62640 46240
L62730 46240
L62780 46220
L62800 46190
L62830 46150
L62830 46050
L62800 46000
L62780 45980
L62730 45960
" />
<path d="M63070 46240
L63160 46240
L63210 46220
L63230 46190
L63280 46120
L63300 46030
L63300 45840
L63280 45790
L63260 45770
L63210 45740
L63110 45740
L63070 45770
L63040 45790
L63020 45840
L63020 45960
L63040 46000
L63070 46030
L63110 46050
L63210 46050
L63260 46030
L63280 46000
L63300 45960
" />
<path d="M63880 45720
L63450 46360
" />
<path d="M64020 46220
L64070 46240
L64160 46240
L64210 46220
L64230 46170
L64230 46150
L64210 46100
L64160 46070
L64090 46070
L64040 46050
L64020 46000
L64020 45980
L64040 45930
L64090 45910
L64160 45910
L64210 45930
" />
<path d="M64380 45910
L64570 45910
" />
<path d="M64450 45740
L64450 46170
L64470 46220
L64520 46240
L64570 46240
" />
<path d="M64710 46220
L64760 46240
L64850 46240
L64900 46220
L64920 46170
L64920 46150
L64900 46100
L64850 46070
L64780 46070
L64730 46050
L64710 46000
L64710 45980
L64730 45930
L64780 45910
L64850 45910
L64900 45930
" />
<path d="M65210 45960
L65160 45930
L65140 45910
L65110 45860
L65110 45840
L65140 45790
L65160 45770
L65210 45740
L65300 45740
L65350 45770
L65380 45790
L65400 45840
L65400 45860
L65380 45910
L65350 45930
L65300 45960
L65210 45960
L65160 45980
L65140 46000
L65110 46050
L65110 46150
L65140 46190
L65160 46220
L65210 46240
L65300 46240
L65350 46220
L65380 46190
L65400 46150
L65400 46050
L65380 46000
L65350 45980
L65300 45960
" />
<path d="M65830 46240
L65830 45740
" />
<path d="M65830 46220
L65780 46240
L65690 46240
L65640 46220
L65610 46190
L65590 46150
L65590 46000
L65610 45960
L65640 45930
L65690 45910
L65780 45910
L65830 45930
" />
<path d="M66070 45910
L66070 46240
" />
<path d="M66070 45960
L66090 45930
L66140 45910
L66210 45910
L66260 45930
L66280 45980
L66280 46240
" />
<path d="M66730 45740
L66640 45740
L66590 45770
L66570 45790
L66520 45860
L66500 45960
L66500 46150
L66520 46190
L66540 46220
L66590 46240
L66690 46240
L66730 46220
L66760 46190
L66780 46150
L66780 46030
L66760 45980
L66730 45960
L66690 45930
L66590 45930
L66540 45960
L66520 45980
L66500 46030
" />
<path d="M67070 46240
L67020 46220
L67000 46170
L67000 45740
" />
<path d="M67190 45910
L67380 45910
" />
<path d="M67260 46240
L67260 45810
L67280 45770
L67330 45740
L67380 45740
" />
<path d="M67760 45740
L67660 45740
L67610 45770
L67590 45790
L67540 45860
L67520 45960
L67520 46150
L67540 46190
L67570 46220
L67610 46240
L67710 46240
L67760 46220
L67780 46190
L67800 46150
L67800 46030
L67780 45980
L67760 45960
L67710 45930
L67610 45930
L67570 45960
L67540 45980
L67520 46030
" />
<path d="M68230 46240
L68230 45980
L68210 45930
L68160 45910
L68070 45910
L68020 45930
" />
<path d="M68230 46220
L68190 46240
L68070 46240
L68020 46220
L68000 46170
L68000 46120
L68020 46070
L68070 46050
L68190 46050
L68230 46030
" />
<path d="M68690 45910
L68690 46310
L68660 46360
L68640 46380
L68590 46410
L68520 46410
L68470 46380
" />
<path d="M68690 46220
L68640 46240
L68540 46240
L68500 46220
L68470 46190
L68450 46150
L68450 46000
L68470 45960
L68500 45930
L68540 45910
L68640 45910
L68690 45930
" />
<path d="M68920 46050
L69300 46050
" />
<path d="M69800 46240
L69520 46240
" />
<path d="M69660 46240
L69660 45740
L69610 45810
L69570 45860
L69520 45880
" />
<path d="M70280 46240
L70000 46240
" />
<path d="M70140 46240
L70140 45740
L70090 45810
L70040 45860
L70000 45880
" />
<path d="M70760 46240
L70470 46240
" />
<path d="M70610 46240
L70610 45740
L70570 45810
L70520 45860
L70470 45880
" />
<path d="M71190 45910
L71190 46240
" />
<path d="M71070 45720
L70950 46070
L71260 46070
" />
<path d="M71420 45790
L71450 45770
L71500 45740
L71610 45740
L71660 45770
L71690 45790
L71710 45840
L71710 45880
L71690 45960
L71400 46240
L71710 46240
" />
<path d="M72020 45740
L72070 45740
L72110 45770
L72140 45790
L72160 45840
L72190 45930
L72190 46050
L72160 46150
L72140 46190
L72110 46220
L72070 46240
L72020 46240
L71970 46220
L71950 46190
L71920 46150
L71900 46050
L71900 45930
L71920 45840
L71950 45790
L71970 45770
L72020 45740
" />
<path d="M72420 46240
L72520 46240
L72570 46220
L72590 46190
L72640 46120
L72660 46030
L72660 45840
L72640 45790
L72610 45770
L72570 45740
L72470 45740
L72420 45770
L72400 45790
L72380 45840
L72380 45960
L72400 46000
L72420 46030
L72470 46050
L72570 46050
L72610 46030
L72640 46000
L72660 45960
" />
<path d="M72880 46190
L72900 46220
L72880 46240
L72850 46220
L72880 46190
L72880 46240
" />
<path d="M73110 45910
L73110 46410
" />
<path d="M73110 45930
L73160 45910
L73260 45910
L73300 45930
L73330 45960
L73350 46000
L73350 46150
L73330 46190
L73300 46220
L73260 46240
L73160 46240
L73110 46220
" />
<path d="M73780 46240
L73780 45740
" />
<path d="M73780 46220
L73730 46240
L73640 46240
L73590 46220
L73570 46190
L73540 46150
L73540 46000
L73570 45960
L73590 45930
L73640 45910
L73730 45910
L73780 45930
" />
<path d="M73950 45910
L74140 45910
" />
<path d="M74020 46240
L74020 45810
L74040 45770
L74090 45740
L74140 45740
" />
</g>
</g>
<g style="fill:#840084; fill-opacity:0.0; 
stroke:#840084; stroke-width:0; stroke-opacity:1; 
stroke-linecap:round; stroke-linejoin:round;">
<g >
</g>
<g style="fill:#840000; fill-opacity:0.0; 
stroke:#840000; stroke-width:0; stroke-opacity:1; 
stroke-linecap:round; stroke-linejoin:round;">
</g>
<g style="fill:#840000; fill-opacity:0.0; 
stroke:#840000; stroke-width:100; stroke-opacity:1; 
stroke-linecap:round; stroke-linejoin:round;">
<circle cx="60650" cy="37000" r="1110" /> 
</g>
<g style="fill:#840000; fill-opacity:1.0; 
stroke:#840000; stroke-width:60; stroke-opacity:1; 
stroke-linecap:round; stroke-linejoin:round;">
<circle cx="61000" cy="37700" r="110" /> 
<circle cx="61000" cy="36300" r="110" /> 
</g>
<g style="fill:#840000; fill-opacity:0.0; 
stroke:#840000; stroke-width:60; stroke-opacity:1; 
stroke-linecap:round; stroke-linejoin:round;">
<path style="fill:#840000; fill-opacity:0.0; 
stroke:#840000; stroke-width:60; stroke-opacity:1; 
stroke-linecap:round; stroke-linejoin:round;fill:none"
d="M 62000,36000
61000,36000
" /> 
<path style="fill:#840000; fill-opacity:0.0; 
stroke:#840000; stroke-width:60; stroke-opacity:1; 
stroke-linecap:round; stroke-linejoin:round;fill:none"
d="M 60020,37000
60100,37000
" /> 
<path style="fill:#840000; fill-opacity:0.0; 
stroke:#840000; stroke-width:60; stroke-opacity:1; 
stroke-linecap:round; stroke-linejoin:round;fill:none"
d="M 60300,37700
61000,37700
" /> 
</g>
<g style="fill:#840000; fill-opacity:0.0; 
stroke:#840000; stroke-width:100; stroke-opacity:1; 
stroke-linecap:round; stroke-linejoin:round;">
<path style="fill:#840000; fill-opacity:0.0; 
stroke:#840000; stroke-width:100; stroke-opacity:1; 
stroke-linecap:round; stroke-linejoin:round;fill:none"
d="M 60300,37500
60300,37900
" /> 
</g>
<g style="fill:#840000; fill-opacity:0.0; 
stroke:#840000; stroke-width:60; stroke-opacity:1; 
stroke-linecap:round; stroke-linejoin:round;">
<path style="fill:#840000; fill-opacity:0.0; 
stroke:#840000; stroke-width:60; stroke-opacity:1; 
stroke-linecap:round; stroke-linejoin:round;fill:none"
d="M 60300,37000
61000,37000
" /> 
</g>
<g style="fill:#840000; fill-opacity:0.0; 
stroke:#840000; stroke-width:100; stroke-opacity:1; 
stroke-linecap:round; stroke-linejoin:round;">
<path style="fill:#840000; fill-opacity:0.0; 
stroke:#840000; stroke-width:100; stroke-opacity:1; 
stroke-linecap:round; stroke-linejoin:round;fill:none"
d="M 60300,36800
60300,37200
" /> 
</g>
<g style="fill:#840000; fill-opacity:0.0; 
stroke:#840000; stroke-width:60; stroke-opacity:1; 
stroke-linecap:round; stroke-linejoin:round;">
<path style="fill:#840000; fill-opacity:0.0; 
stroke:#840000; stroke-width:60; stroke-opacity:1; 
stroke-linecap:round; stroke-linejoin:round;fill:none"
d="M 60300,36300
61000,36300
" /> 
</g>
<g style="fill:#840000; fill-opacity:0.0; 
stroke:#840000; stroke-width:100; stroke-opacity:1; 
stroke-linecap:round; stroke-linejoin:round;">
<path style="fill:#840000; fill-opacity:0.0; 
stroke:#840000; stroke-width:100; stroke-opacity:1; 
stroke-linecap:round; stroke-linejoin:round;fill:none"
d="M 60300,36100
60300,36500
" /> 
</g>
<g style="fill:#840000; fill-opacity:0.0; 
stroke:#840000; stroke-width:60; stroke-opacity:1; 
stroke-linecap:round; stroke-linejoin:round;">
<path style="fill:#840000; fill-opacity:0.0; 
stroke:#840000; stroke-width:60; stroke-opacity:1; 
stroke-linecap:round; stroke-linejoin:round;fill:none"
d="M 61000,37700
61000,38000
" /> 
<path style="fill:#840000; fill-opacity:0.0; 
stroke:#840000; stroke-width:60; stroke-opacity:1; 
stroke-linecap:round; stroke-linejoin:round;fill:none"
d="M 61000,37700
61000,37000
" /> 
<path style="fill:#840000; fill-opacity:0.0; 
stroke:#840000; stroke-width:60; stroke-opacity:1; 
stroke-linecap:round; stroke-linejoin:round;fill:none"
d="M 61000,36000
61000,36300
" /> 
</g>
<g style="fill:#840000; fill-opacity:0.0; 
stroke:#840000; stroke-width:100; stroke-opacity:1; 
stroke-linecap:round; stroke-linejoin:round;">
<path style="fill:#840000; fill-opacity:0.0; 
stroke:#840000; stroke-width:100; stroke-opacity:1; 
stroke-linecap:round; stroke-linejoin:round;fill:none"
d="M 60100,36250
60100,37750
60100,37750
" /> 
</g>
<g style="fill:#840000; fill-opacity:1.0; 
stroke:#840000; stroke-width:60; stroke-opacity:1; 
stroke-linecap:round; stroke-linejoin:round;">
<path style="fill:#840000; fill-opacity:1.0; 
stroke:#840000; stroke-width:60; stroke-opacity:1; 
stroke-linecap:round; stroke-linejoin:round;fill-rule:evenodd;"
d="M 60400,37000
60800,36850
60800,37150
Z" /> 
</g>
<g style="fill:#840000; fill-opacity:0.0; 
stroke:#840000; stroke-width:60; stroke-opacity:1; 
stroke-linecap:round; stroke-linejoin:round;">
<path style="fill:#840000; fill-opacity:0.0; 
stroke:#840000; stroke-width:60; stroke-opacity:1; 
stroke-linecap:round; stroke-linejoin:round;fill:none"
d="M 61000,37700
61300,37700
61300,36300
61000,36300
" /> 
<path style="fill:#840000; fill-opacity:0.0; 
stroke:#840000; stroke-width:60; stroke-opacity:1; 
stroke-linecap:round; stroke-linejoin:round;fill:none"
d="M 61100,36800
61150,36850
61450,36850
61500,36900
" /> 
<path style="fill:#840000; fill-opacity:0.0; 
stroke:#840000; stroke-width:60; stroke-opacity:1; 
stroke-linecap:round; stroke-linejoin:round;fill:none"
d="M 61300,36850
61150,37100
61450,37100
Z" /> 
<path d="M61000 38000
L61000 39000
" />
<g transform="rotate(-90 60900 38500)">
<text x="60900" y="38500"
textLength="540" font-size="660" lengthAdjust="spacingAndGlyphs"
text-anchor="middle" opacity="0">3</text>
</g>
<path d="M60370 38660
L60370 38350
L60560 38520
L60560 38450
L60590 38400
L60610 38380
L60660 38350
L60780 38350
L60820 38380
L60850 38400
L60870 38450
L60870 38590
L60850 38640
L60820 38660
" />
<path d="M60000 37000
L58000 37000
" />
<text x="59000" y="36900"
textLength="540" font-size="660" lengthAdjust="spacingAndGlyphs"
text-anchor="middle" opacity="0">4</text>
<path d="M59090 36540
L59090 36870
" />
<path d="M58970 36350
L58850 36700
L59160 36700
" />
<path d="M62000 36000
L62000 35000
" />
<g transform="rotate(-90 61900 35500)">
<text x="61900" y="35500"
textLength="540" font-size="660" lengthAdjust="spacingAndGlyphs"
text-anchor="middle" opacity="0">5</text>
</g>
<path d="M61370 35380
L61370 35610
L61610 35640
L61590 35610
L61560 35570
L61560 35450
L61590 35400
L61610 35380
L61660 35350
L61780 35350
L61820 35380
L61850 35400
L61870 35450
L61870 35570
L61850 35610
L61820 35640
" />
<path d="M61000 36000
L61000 35000
" />
<g transform="rotate(-90 60900 35500)">
<text x="60900" y="35500"
textLength="540" font-size="660" lengthAdjust="spacingAndGlyphs"
text-anchor="middle" opacity="0">6</text>
</g>
<path d="M60370 35400
L60370 35500
L60400 35540
L60420 35570
L60490 35610
L60590 35640
L60780 35640
L60820 35610
L60850 35590
L60870 35540
L60870 35450
L60850 35400
L60820 35380
L60780 35350
L60660 35350
L60610 35380
L60590 35400
L60560 35450
L60560 35540
L60590 35590
L60610 35610
L60660 35640
" />
</g>
<g style="fill:#008484; fill-opacity:0.0; 
stroke:#008484; stroke-width:60; stroke-opacity:1; 
stroke-linecap:round; stroke-linejoin:round;">
<text x="63460" y="36810"
textLength="2040" font-size="660" lengthAdjust="spacingAndGlyphs"
text-anchor="middle" opacity="0">Q13B</text>
<path d="M62920 36830
L62870 36810
L62820 36760
L62750 36690
L62710 36660
L62660 36660
" />
<path d="M62680 36780
L62630 36760
L62590 36710
L62560 36610
L62560 36450
L62590 36350
L62630 36310
L62680 36280
L62780 36280
L62820 36310
L62870 36350
L62900 36450
L62900 36610
L62870 36710
L62820 36760
L62780 36780
L62680 36780
" />
<path d="M63370 36780
L63090 36780
" />
<path d="M63230 36780
L63230 36280
L63180 36350
L63130 36400
L63090 36420
" />
<path d="M63540 36280
L63850 36280
L63680 36470
L63750 36470
L63800 36500
L63820 36520
L63850 36570
L63850 36690
L63820 36730
L63800 36760
L63750 36780
L63610 36780
L63560 36760
L63540 36730
" />
<path d="M64230 36520
L64300 36540
L64320 36570
L64350 36610
L64350 36690
L64320 36730
L64300 36760
L64250 36780
L64060 36780
L64060 36280
L64230 36280
L64280 36310
L64300 36330
L64320 36380
L64320 36420
L64300 36470
L64280 36500
L64230 36520
L64060 36520
" />
<text x="65240" y="37720"
textLength="5610" font-size="660" lengthAdjust="spacingAndGlyphs"
text-anchor="middle" opacity="0">STS8DN6LF6AG</text>
<path d="M62560 37670
L62630 37690
L62750 37690
L62790 37670
L62820 37640
L62840 37600
L62840 37550
L62820 37500
L62790 37480
L62750 37450
L62650 37430
L62600 37410
L62580 37380
L62560 37330
L62560 37290
L62580 37240
L62600 37220
L62650 37190
L62770 37190
L62840 37220
" />
<path d="M62990 37190
L63270 37190
" />
<path d="M63130 37690
L63130 37190
" />
<path d="M63410 37670
L63490 37690
L63600 37690
L63650 37670
L63680 37640
L63700 37600
L63700 37550
L63680 37500
L63650 37480
L63600 37450
L63510 37430
L63460 37410
L63440 37380
L63410 37330
L63410 37290
L63440 37240
L63460 37220
L63510 37190
L63630 37190
L63700 37220
" />
<path d="M63990 37410
L63940 37380
L63910 37360
L63890 37310
L63890 37290
L63910 37240
L63940 37220
L63990 37190
L64080 37190
L64130 37220
L64150 37240
L64180 37290
L64180 37310
L64150 37360
L64130 37380
L64080 37410
L63990 37410
L63940 37430
L63910 37450
L63890 37500
L63890 37600
L63910 37640
L63940 37670
L63990 37690
L64080 37690
L64130 37670
L64150 37640
L64180 37600
L64180 37500
L64150 37450
L64130 37430
L64080 37410
" />
<path d="M64390 37690
L64390 37190
L64510 37190
L64580 37220
L64630 37260
L64650 37310
L64680 37410
L64680 37480
L64650 37570
L64630 37620
L64580 37670
L64510 37690
L64390 37690
" />
<path d="M64890 37690
L64890 37190
L65180 37690
L65180 37190
" />
<path d="M65630 37190
L65530 37190
L65490 37220
L65460 37240
L65410 37310
L65390 37410
L65390 37600
L65410 37640
L65440 37670
L65490 37690
L65580 37690
L65630 37670
L65650 37640
L65680 37600
L65680 37480
L65650 37430
L65630 37410
L65580 37380
L65490 37380
L65440 37410
L65410 37430
L65390 37480
" />
<path d="M66130 37690
L65890 37690
L65890 37190
" />
<path d="M66460 37430
L66290 37430
" />
<path d="M66290 37690
L66290 37190
L66530 37190
" />
<path d="M66940 37190
L66840 37190
L66790 37220
L66770 37240
L66720 37310
L66700 37410
L66700 37600
L66720 37640
L66750 37670
L66790 37690
L66890 37690
L66940 37670
L66960 37640
L66990 37600
L66990 37480
L66960 37430
L66940 37410
L66890 37380
L66790 37380
L66750 37410
L66720 37430
L66700 37480
" />
<path d="M67180 37550
L67410 37550
" />
<path d="M67130 37690
L67290 37190
L67460 37690
" />
<path d="M67890 37220
L67840 37190
L67770 37190
L67700 37220
L67650 37260
L67630 37310
L67600 37410
L67600 37480
L67630 37570
L67650 37620
L67700 37670
L67770 37690
L67820 37690
L67890 37670
L67910 37640
L67910 37480
L67820 37480
" />
</g>
</g>
<g style="fill:#008484; fill-opacity:0.0; 
stroke:#008484; stroke-width:0; stroke-opacity:1; 
stroke-linecap:round; stroke-linejoin:round;">
<g >
</g>
<g style="fill:#840000; fill-opacity:0.0; 
stroke:#840000; stroke-width:0; stroke-opacity:1; 
stroke-linecap:round; stroke-linejoin:round;">
</g>
<g style="fill:#840000; fill-opacity:0.0; 
stroke:#840000; stroke-width:60; stroke-opacity:1; 
stroke-linecap:round; stroke-linejoin:round;">
<path style="fill:#840000; fill-opacity:0.0; 
stroke:#840000; stroke-width:60; stroke-opacity:1; 
stroke-linecap:round; stroke-linejoin:round;fill:none"
d="M 61000,39000
61000,39500
61500,39500
61000,40000
60500,39500
61000,39500
" /> 
</g>
<g style="fill:#008484; fill-opacity:0.0; 
stroke:#008484; stroke-width:60; stroke-opacity:1; 
stroke-linecap:round; stroke-linejoin:round;">
<text x="61050" y="41000"
textLength="1580" font-size="660" lengthAdjust="spacingAndGlyphs"
text-anchor="middle" opacity="0">GND</text>
<path d="M60660 40500
L60620 40470
L60550 40470
L60470 40500
L60430 40540
L60400 40590
L60380 40690
L60380 40760
L60400 40850
L60430 40900
L60470 40950
L60550 40970
L60590 40970
L60660 40950
L60690 40920
L60690 40760
L60590 40760
" />
<path d="M60900 40970
L60900 40470
L61190 40970
L61190 40470
" />
<path d="M61430 40970
L61430 40470
L61550 40470
L61620 40500
L61660 40540
L61690 40590
L61710 40690
L61710 40760
L61690 40850
L61660 40900
L61620 40950
L61550 40970
L61430 40970
" />
</g>
</g>
<g style="fill:#008484; fill-opacity:0.0; 
stroke:#008484; stroke-width:0; stroke-opacity:1; 
stroke-linecap:round; stroke-linejoin:round;">
<g >
</g>
<g style="fill:#840000; fill-opacity:0.0; 
stroke:#840000; stroke-width:0; stroke-opacity:1; 
stroke-linecap:round; stroke-linejoin:round;">
</g>
<g style="fill:#840000; fill-opacity:0.0; 
stroke:#840000; stroke-width:100; stroke-opacity:1; 
stroke-linecap:round; stroke-linejoin:round;">
<rect x="52600" y="24500" width="800" height="2000" rx="0" />
</g>
<g style="fill:#840000; fill-opacity:0.0; 
stroke:#840000; stroke-width:60; stroke-opacity:1; 
stroke-linecap:round; stroke-linejoin:round;">
<path d="M53000 24500
L53000 24000
" />
<path d="M53000 26500
L53000 27000
" />
</g>
<g style="fill:#008484; fill-opacity:0.0; 
stroke:#008484; stroke-width:60; stroke-opacity:1; 
stroke-linecap:round; stroke-linejoin:round;">
<text x="51520" y="25270"
textLength="1040" font-size="660" lengthAdjust="spacingAndGlyphs"
text-anchor="middle" opacity="0">R9</text>
<path d="M51430 25240
L51270 25000
" />
<path d="M51150 25240
L51150 24740
L51340 24740
L51380 24770
L51410 24790
L51430 24840
L51430 24910
L51410 24960
L51380 24980
L51340 25000
L51150 25000
" />
<path d="M51670 25240
L51770 25240
L51810 25220
L51840 25190
L51880 25120
L51910 25030
L51910 24840
L51880 24790
L51860 24770
L51810 24740
L51720 24740
L51670 24770
L51650 24790
L51620 24840
L51620 24960
L51650 25000
L51670 25030
L51720 25050
L51810 25050
L51860 25030
L51880 25000
L51910 24960
" />
<text x="51780" y="26270"
textLength="560" font-size="660" lengthAdjust="spacingAndGlyphs"
text-anchor="middle" opacity="0">R</text>
<path d="M51930 26240
L51760 26000
" />
<path d="M51640 26240
L51640 25740
L51830 25740
L51880 25770
L51910 25790
L51930 25840
L51930 25910
L51910 25960
L51880 25980
L51830 26000
L51640 26000
" />
</g>
</g>
<g style="fill:#008484; fill-opacity:0.0; 
stroke:#008484; stroke-width:60; stroke-opacity:1; 
stroke-linecap:round; stroke-linejoin:round;">
</g>
<g style="fill:#008400; fill-opacity:0.0; 
stroke:#008400; stroke-width:60; stroke-opacity:1; 
stroke-linecap:round; stroke-linejoin:round;">
<path d="M53000 37000
L53000 38500
" />
<path d="M53000 33000
L53000 33500
" />
<path d="M53000 37000
L58000 37000
" />
<path d="M53000 27500
L58000 27500
" />
<path d="M53000 36500
L53000 37000
" />
<path d="M53000 27000
L53000 27500
" />
<path d="M53000 23500
L53000 24000
" />
<path d="M52500 33000
L53000 33000
" />
<path d="M53000 29500
L53000 27500
" />
<path d="M52000 23500
L53000 23500
" />
<path d="M52000 29500
L53000 29500
" />
<path d="M61000 32500
L66000 32500
" />
<path d="M61000 30000
L66000 30000
" />
<path d="M61000 23500
L61000 24500
" />
<path d="M61000 34000
L61000 32500
" />
<path d="M52000 38500
L53000 38500
" />
<path d="M62000 34000
L61000 34000
" />
<path d="M62000 35000
L62000 34000
" />
<path d="M61000 30000
L61000 29500
" />
<path d="M62000 24500
L61000 24500
" />
<path d="M62000 25500
L62000 24500
" />
<path d="M61000 25500
L61000 24500
" />
<path d="M61000 35000
L61000 34000
" />
</g>
<g style="fill:#848400; fill-opacity:0.0; 
stroke:#848400; stroke-width:60; stroke-opacity:1; 
stroke-linecap:round; stroke-linejoin:round;">
<text x="51400" y="23750"
textLength="3250" font-size="660" lengthAdjust="spacingAndGlyphs"
text-anchor="end" opacity="0">Gate_drv</text>
<path d="M48560 23250
L48510 23220
L48440 23220
L48370 23250
L48320 23290
L48290 23340
L48270 23440
L48270 23510
L48290 23600
L48320 23650
L48370 23700
L48440 23720
L48480 23720
L48560 23700
L48580 23670
L48580 23510
L48480 23510
" />
<path d="M49010 23720
L49010 23460
L48980 23410
L48940 23390
L48840 23390
L48790 23410
" />
<path d="M49010 23700
L48960 23720
L48840 23720
L48790 23700
L48770 23650
L48770 23600
L48790 23550
L48840 23530
L48960 23530
L49010 23510
" />
<path d="M49170 23390
L49370 23390
" />
<path d="M49250 23220
L49250 23650
L49270 23700
L49320 23720
L49370 23720
" />
<path d="M49720 23700
L49670 23720
L49580 23720
L49530 23700
L49510 23650
L49510 23460
L49530 23410
L49580 23390
L49670 23390
L49720 23410
L49750 23460
L49750 23510
L49510 23550
" />
<path d="M49840 23770
L50220 23770
" />
<path d="M50560 23720
L50560 23220
" />
<path d="M50560 23700
L50510 23720
L50410 23720
L50370 23700
L50340 23670
L50320 23630
L50320 23480
L50340 23440
L50370 23410
L50410 23390
L50510 23390
L50560 23410
" />
<path d="M50790 23720
L50790 23390
" />
<path d="M50790 23480
L50820 23440
L50840 23410
L50890 23390
L50940 23390
" />
<path d="M51060 23390
L51170 23720
L51290 23390
" />
</g>
<g style="fill:#848400; fill-opacity:0.0; 
stroke:#848400; stroke-width:100; stroke-opacity:1; 
stroke-linecap:round; stroke-linejoin:round;">
<path style="fill:#848400; fill-opacity:0.0; 
stroke:#848400; stroke-width:100; stroke-opacity:1; 
stroke-linecap:round; stroke-linejoin:round;fill:none"
d="M 52000,23250
51500,23250
51500,23750
52000,23750
Z" /> 
</g>
<g style="fill:#848400; fill-opacity:0.0; 
stroke:#848400; stroke-width:60; stroke-opacity:1; 
stroke-linecap:round; stroke-linejoin:round;">
<text x="51900" y="33250"
textLength="3250" font-size="660" lengthAdjust="spacingAndGlyphs"
text-anchor="end" opacity="0">Gate_drv</text>
<path d="M49060 32750
L49010 32720
L48940 32720
L48870 32750
L48820 32790
L48790 32840
L48770 32940
L48770 33010
L48790 33100
L48820 33150
L48870 33200
L48940 33220
L48980 33220
L49060 33200
L49080 33170
L49080 33010
L48980 33010
" />
<path d="M49510 33220
L49510 32960
L49480 32910
L49440 32890
L49340 32890
L49290 32910
" />
<path d="M49510 33200
L49460 33220
L49340 33220
L49290 33200
L49270 33150
L49270 33100
L49290 33050
L49340 33030
L49460 33030
L49510 33010
" />
<path d="M49670 32890
L49870 32890
" />
<path d="M49750 32720
L49750 33150
L49770 33200
L49820 33220
L49870 33220
" />
<path d="M50220 33200
L50170 33220
L50080 33220
L50030 33200
L50010 33150
L50010 32960
L50030 32910
L50080 32890
L50170 32890
L50220 32910
L50250 32960
L50250 33010
L50010 33050
" />
<path d="M50340 33270
L50720 33270
" />
<path d="M51060 33220
L51060 32720
" />
<path d="M51060 33200
L51010 33220
L50910 33220
L50870 33200
L50840 33170
L50820 33130
L50820 32980
L50840 32940
L50870 32910
L50910 32890
L51010 32890
L51060 32910
" />
<path d="M51290 33220
L51290 32890
" />
<path d="M51290 32980
L51320 32940
L51340 32910
L51390 32890
L51440 32890
" />
<path d="M51560 32890
L51670 33220
L51790 32890
" />
</g>
<g style="fill:#848400; fill-opacity:0.0; 
stroke:#848400; stroke-width:100; stroke-opacity:1; 
stroke-linecap:round; stroke-linejoin:round;">
<path style="fill:#848400; fill-opacity:0.0; 
stroke:#848400; stroke-width:100; stroke-opacity:1; 
stroke-linecap:round; stroke-linejoin:round;fill:none"
d="M 52500,32750
52000,32750
52000,33250
52500,33250
Z" /> 
</g>
<g style="fill:#848400; fill-opacity:0.0; 
stroke:#848400; stroke-width:60; stroke-opacity:1; 
stroke-linecap:round; stroke-linejoin:round;">
<text x="66600" y="30250"
textLength="1730" font-size="660" lengthAdjust="spacingAndGlyphs"
text-anchor="start" opacity="0">High</text>
<path d="M66740 30220
L66740 29720
" />
<path d="M66740 29960
L67030 29960
" />
<path d="M67030 30220
L67030 29720
" />
<path d="M67270 30220
L67270 29890
" />
<path d="M67270 29720
L67240 29750
L67270 29770
L67290 29750
L67270 29720
L67270 29770
" />
<path d="M67720 29890
L67720 30290
L67700 30340
L67670 30360
L67630 30390
L67550 30390
L67510 30360
" />
<path d="M67720 30200
L67670 30220
L67580 30220
L67530 30200
L67510 30170
L67480 30130
L67480 29980
L67510 29940
L67530 29910
L67580 29890
L67670 29890
L67720 29910
" />
<path d="M67960 30220
L67960 29720
" />
<path d="M68170 30220
L68170 29960
L68150 29910
L68100 29890
L68030 29890
L67980 29910
L67960 29940
" />
</g>
<g style="fill:#848400; fill-opacity:0.0; 
stroke:#848400; stroke-width:100; stroke-opacity:1; 
stroke-linecap:round; stroke-linejoin:round;">
<path style="fill:#848400; fill-opacity:0.0; 
stroke:#848400; stroke-width:100; stroke-opacity:1; 
stroke-linecap:round; stroke-linejoin:round;fill:none"
d="M 66000,29750
66500,29750
66500,30250
66000,30250
Z" /> 
</g>
<g style="fill:#848400; fill-opacity:0.0; 
stroke:#848400; stroke-width:60; stroke-opacity:1; 
stroke-linecap:round; stroke-linejoin:round;">
<text x="66600" y="32750"
textLength="1440" font-size="660" lengthAdjust="spacingAndGlyphs"
text-anchor="start" opacity="0">Low</text>
<path d="M66980 32720
L66740 32720
L66740 32220
" />
<path d="M67220 32720
L67170 32700
L67150 32670
L67130 32630
L67130 32480
L67150 32440
L67170 32410
L67220 32390
L67290 32390
L67340 32410
L67360 32440
L67390 32480
L67390 32630
L67360 32670
L67340 32700
L67290 32720
L67220 32720
" />
<path d="M67550 32390
L67650 32720
L67740 32480
L67840 32720
L67930 32390
" />
</g>
<g style="fill:#848400; fill-opacity:0.0; 
stroke:#848400; stroke-width:100; stroke-opacity:1; 
stroke-linecap:round; stroke-linejoin:round;">
<path style="fill:#848400; fill-opacity:0.0; 
stroke:#848400; stroke-width:100; stroke-opacity:1; 
stroke-linecap:round; stroke-linejoin:round;fill:none"
d="M 66000,32250
66500,32250
66500,32750
66000,32750
Z" /> 
</g>
<g style="fill:#848400; fill-opacity:0.0; 
stroke:#848400; stroke-width:60; stroke-opacity:1; 
stroke-linecap:round; stroke-linejoin:round;">
<text x="51400" y="38750"
textLength="2800" font-size="660" lengthAdjust="spacingAndGlyphs"
text-anchor="end" opacity="0">Low_ctl</text>
<path d="M48980 38720
L48750 38720
L48750 38220
" />
<path d="M49220 38720
L49170 38700
L49150 38670
L49130 38630
L49130 38480
L49150 38440
L49170 38410
L49220 38390
L49290 38390
L49340 38410
L49370 38440
L49390 38480
L49390 38630
L49370 38670
L49340 38700
L49290 38720
L49220 38720
" />
<path d="M49560 38390
L49650 38720
L49750 38480
L49840 38720
L49940 38390
" />
<path d="M50010 38770
L50390 38770
" />
<path d="M50720 38700
L50670 38720
L50580 38720
L50530 38700
L50510 38670
L50480 38630
L50480 38480
L50510 38440
L50530 38410
L50580 38390
L50670 38390
L50720 38410
" />
<path d="M50870 38390
L51060 38390
" />
<path d="M50940 38220
L50940 38650
L50960 38700
L51010 38720
L51060 38720
" />
<path d="M51290 38720
L51250 38700
L51220 38650
L51220 38220
" />
</g>
<g style="fill:#848400; fill-opacity:0.0; 
stroke:#848400; stroke-width:100; stroke-opacity:1; 
stroke-linecap:round; stroke-linejoin:round;">
<path style="fill:#848400; fill-opacity:0.0; 
stroke:#848400; stroke-width:100; stroke-opacity:1; 
stroke-linecap:round; stroke-linejoin:round;fill:none"
d="M 52000,38250
51500,38250
51500,38750
52000,38750
Z" /> 
</g>
<g style="fill:#848400; fill-opacity:0.0; 
stroke:#848400; stroke-width:60; stroke-opacity:1; 
stroke-linecap:round; stroke-linejoin:round;">
<text x="51400" y="29750"
textLength="3080" font-size="660" lengthAdjust="spacingAndGlyphs"
text-anchor="end" opacity="0">High_ctl</text>
<path d="M48460 29720
L48460 29220
" />
<path d="M48460 29460
L48750 29460
" />
<path d="M48750 29720
L48750 29220
" />
<path d="M48980 29720
L48980 29390
" />
<path d="M48980 29220
L48960 29250
L48980 29270
L49010 29250
L48980 29220
L48980 29270
" />
<path d="M49440 29390
L49440 29790
L49410 29840
L49390 29860
L49340 29890
L49270 29890
L49220 29860
" />
<path d="M49440 29700
L49390 29720
L49290 29720
L49250 29700
L49220 29670
L49200 29630
L49200 29480
L49220 29440
L49250 29410
L49290 29390
L49390 29390
L49440 29410
" />
<path d="M49670 29720
L49670 29220
" />
<path d="M49890 29720
L49890 29460
L49870 29410
L49820 29390
L49750 29390
L49700 29410
L49670 29440
" />
<path d="M50010 29770
L50390 29770
" />
<path d="M50720 29700
L50670 29720
L50580 29720
L50530 29700
L50510 29670
L50480 29630
L50480 29480
L50510 29440
L50530 29410
L50580 29390
L50670 29390
L50720 29410
" />
<path d="M50870 29390
L51060 29390
" />
<path d="M50940 29220
L50940 29650
L50960 29700
L51010 29720
L51060 29720
" />
<path d="M51290 29720
L51250 29700
L51220 29650
L51220 29220
" />
</g>
<g style="fill:#848400; fill-opacity:0.0; 
stroke:#848400; stroke-width:100; stroke-opacity:1; 
stroke-linecap:round; stroke-linejoin:round;">
<path style="fill:#848400; fill-opacity:0.0; 
stroke:#848400; stroke-width:100; stroke-opacity:1; 
stroke-linecap:round; stroke-linejoin:round;fill:none"
d="M 52000,29250
51500,29250
51500,29750
52000,29750
Z" /> 
</g>
<g style="fill:#848400; fill-opacity:0.0; 
stroke:#848400; stroke-width:60; stroke-opacity:1; 
stroke-linecap:round; stroke-linejoin:round;">
</g>
<g style="fill:#840000; fill-opacity:0.0; 
stroke:#840000; stroke-width:60; stroke-opacity:1; 
stroke-linecap:round; stroke-linejoin:round;">
<g transform="rotate(-90 61000 23400)">
<text x="61000" y="23650"
textLength="4540" font-size="660" lengthAdjust="spacingAndGlyphs"
text-anchor="start" opacity="0">MatrixPower</text>
</g>
<path d="M61220 23250
L60720 23250
L61080 23080
L60720 22910
L61220 22910
" />
<path d="M61220 22460
L60960 22460
L60910 22480
L60890 22530
L60890 22630
L60910 22670
" />
<path d="M61200 22460
L61220 22510
L61220 22630
L61200 22670
L61150 22700
L61100 22700
L61050 22670
L61030 22630
L61030 22510
L61010 22460
" />
<path d="M60890 22290
L60890 22100
" />
<path d="M60720 22220
L61150 22220
L61200 22200
L61220 22150
L61220 22100
" />
<path d="M61220 21940
L60890 21940
" />
<path d="M60980 21940
L60940 21910
L60910 21890
L60890 21840
L60890 21790
" />
<path d="M61220 21630
L60890 21630
" />
<path d="M60720 21630
L60750 21650
L60770 21630
L60750 21600
L60720 21630
L60770 21630
" />
<path d="M61220 21440
L60890 21170
" />
<path d="M60890 21440
L61220 21170
" />
<path d="M61220 20980
L60720 20980
L60720 20790
L60750 20750
L60770 20720
L60820 20700
L60890 20700
L60940 20720
L60960 20750
L60980 20790
L60980 20980
" />
<path d="M61220 20410
L61200 20460
L61170 20480
L61130 20510
L60980 20510
L60940 20480
L60910 20460
L60890 20410
L60890 20340
L60910 20290
L60940 20270
L60980 20250
L61130 20250
L61170 20270
L61200 20290
L61220 20340
L61220 20410
" />
<path d="M60890 20080
L61220 19980
L60980 19890
L61220 19790
L60890 19700
" />
<path d="M61200 19320
L61220 19370
L61220 19460
L61200 19510
L61150 19530
L60960 19530
L60910 19510
L60890 19460
L60890 19370
L60910 19320
L60960 19290
L61010 19290
L61050 19530
" />
<path d="M61220 19080
L60890 19080
" />
<path d="M60980 19080
L60940 19060
L60910 19030
L60890 18980
L60890 18940
" />
</g>
<g style="fill:#840000; fill-opacity:0.0; 
stroke:#840000; stroke-width:100; stroke-opacity:1; 
stroke-linecap:round; stroke-linejoin:round;">
<path style="fill:#840000; fill-opacity:0.0; 
stroke:#840000; stroke-width:100; stroke-opacity:1; 
stroke-linecap:round; stroke-linejoin:round;fill:none"
d="M 61000,23500
61440,23500
61440,18790
61000,18790
60560,18790
60560,23500
Z" /> 
</g>
<g style="fill:#840000; fill-opacity:0.0; 
stroke:#840000; stroke-width:60; stroke-opacity:1; 
stroke-linecap:round; stroke-linejoin:round;">
</g>
<g style="fill:#000000; fill-opacity:0.0; 
stroke:#000000; stroke-width:60; stroke-opacity:1; 
stroke-linecap:round; stroke-linejoin:round;">
<text x="55000" y="27400"
textLength="2630" font-size="660" lengthAdjust="spacingAndGlyphs"
text-anchor="start" opacity="0">Gate_H</text>
<path d="M55410 26900
L55360 26870
L55290 26870
L55220 26900
L55170 26940
L55140 26990
L55120 27090
L55120 27160
L55140 27250
L55170 27300
L55220 27350
L55290 27370
L55330 27370
L55410 27350
L55430 27320
L55430 27160
L55330 27160
" />
<path d="M55860 27370
L55860 27110
L55830 27060
L55790 27040
L55690 27040
L55640 27060
" />
<path d="M55860 27350
L55810 27370
L55690 27370
L55640 27350
L55620 27300
L55620 27250
L55640 27200
L55690 27180
L55810 27180
L55860 27160
" />
<path d="M56030 27040
L56220 27040
" />
<path d="M56100 26870
L56100 27300
L56120 27350
L56170 27370
L56220 27370
" />
<path d="M56570 27350
L56530 27370
L56430 27370
L56380 27350
L56360 27300
L56360 27110
L56380 27060
L56430 27040
L56530 27040
L56570 27060
L56600 27110
L56600 27160
L56360 27200
" />
<path d="M56690 27420
L57070 27420
" />
<path d="M57190 27370
L57190 26870
" />
<path d="M57190 27110
L57480 27110
" />
<path d="M57480 27370
L57480 26870
" />
<text x="55000" y="36900"
textLength="2510" font-size="660" lengthAdjust="spacingAndGlyphs"
text-anchor="start" opacity="0">Gate_L</text>
<path d="M55410 36400
L55360 36370
L55290 36370
L55220 36400
L55170 36440
L55140 36490
L55120 36590
L55120 36660
L55140 36750
L55170 36800
L55220 36850
L55290 36870
L55330 36870
L55410 36850
L55430 36820
L55430 36660
L55330 36660
" />
<path d="M55860 36870
L55860 36610
L55830 36560
L55790 36540
L55690 36540
L55640 36560
" />
<path d="M55860 36850
L55810 36870
L55690 36870
L55640 36850
L55620 36800
L55620 36750
L55640 36700
L55690 36680
L55810 36680
L55860 36660
" />
<path d="M56030 36540
L56220 36540
" />
<path d="M56100 36370
L56100 36800
L56120 36850
L56170 36870
L56220 36870
" />
<path d="M56570 36850
L56530 36870
L56430 36870
L56380 36850
L56360 36800
L56360 36610
L56380 36560
L56430 36540
L56530 36540
L56570 36560
L56600 36610
L56600 36660
L56360 36700
" />
<path d="M56690 36920
L57070 36920
" />
<path d="M57430 36870
L57190 36870
L57190 36370
" />
</g>
<g style="fill:#0000C2; fill-opacity:0.0; 
stroke:#0000C2; stroke-width:60; stroke-opacity:1; 
stroke-linecap:round; stroke-linejoin:round;">
<text x="48500" y="44400"
textLength="9800" font-size="660" lengthAdjust="spacingAndGlyphs"
text-anchor="start" opacity="0">Power MOSFET Datasheet:</text>
<path d="M48640 44370
L48640 43870
L48830 43870
L48880 43900
L48910 43920
L48930 43970
L48930 44040
L48910 44090
L48880 44110
L48830 44130
L48640 44130
" />
<path d="M49220 44370
L49170 44350
L49140 44320
L49120 44280
L49120 44130
L49140 44090
L49170 44060
L49220 44040
L49290 44040
L49330 44060
L49360 44090
L49380 44130
L49380 44280
L49360 44320
L49330 44350
L49290 44370
L49220 44370
" />
<path d="M49550 44040
L49640 44370
L49740 44130
L49830 44370
L49930 44040
" />
<path d="M50310 44350
L50260 44370
L50170 44370
L50120 44350
L50100 44300
L50100 44110
L50120 44060
L50170 44040
L50260 44040
L50310 44060
L50330 44110
L50330 44160
L50100 44200
" />
<path d="M50550 44370
L50550 44040
" />
<path d="M50550 44130
L50570 44090
L50600 44060
L50640 44040
L50690 44040
" />
<path d="M51240 44370
L51240 43870
L51410 44230
L51570 43870
L51570 44370
" />
<path d="M51910 43870
L52000 43870
L52050 43900
L52100 43940
L52120 44040
L52120 44200
L52100 44300
L52050 44350
L52000 44370
L51910 44370
L51860 44350
L51810 44300
L51790 44200
L51790 44040
L51810 43940
L51860 43900
L51910 43870
" />
<path d="M52310 44350
L52380 44370
L52500 44370
L52550 44350
L52570 44320
L52600 44280
L52600 44230
L52570 44180
L52550 44160
L52500 44130
L52410 44110
L52360 44090
L52330 44060
L52310 44010
L52310 43970
L52330 43920
L52360 43900
L52410 43870
L52530 43870
L52600 43900
" />
<path d="M52980 44110
L52810 44110
" />
<path d="M52810 44370
L52810 43870
L53050 43870
" />
<path d="M53240 44110
L53410 44110
" />
<path d="M53480 44370
L53240 44370
L53240 43870
L53480 43870
" />
<path d="M53620 43870
L53910 43870
" />
<path d="M53760 44370
L53760 43870
" />
<path d="M54450 44370
L54450 43870
L54570 43870
L54640 43900
L54690 43940
L54720 43990
L54740 44090
L54740 44160
L54720 44250
L54690 44300
L54640 44350
L54570 44370
L54450 44370
" />
<path d="M55170 44370
L55170 44110
L55140 44060
L55100 44040
L55000 44040
L54950 44060
" />
<path d="M55170 44350
L55120 44370
L55000 44370
L54950 44350
L54930 44300
L54930 44250
L54950 44200
L55000 44180
L55120 44180
L55170 44160
" />
<path d="M55330 44040
L55530 44040
" />
<path d="M55410 43870
L55410 44300
L55430 44350
L55480 44370
L55530 44370
" />
<path d="M55910 44370
L55910 44110
L55880 44060
L55830 44040
L55740 44040
L55690 44060
" />
<path d="M55910 44350
L55860 44370
L55740 44370
L55690 44350
L55670 44300
L55670 44250
L55690 44200
L55740 44180
L55860 44180
L55910 44160
" />
<path d="M56120 44350
L56170 44370
L56260 44370
L56310 44350
L56330 44300
L56330 44280
L56310 44230
L56260 44200
L56190 44200
L56140 44180
L56120 44130
L56120 44110
L56140 44060
L56190 44040
L56260 44040
L56310 44060
" />
<path d="M56550 44370
L56550 43870
" />
<path d="M56760 44370
L56760 44110
L56740 44060
L56690 44040
L56620 44040
L56570 44060
L56550 44090
" />
<path d="M57190 44350
L57140 44370
L57050 44370
L57000 44350
L56980 44300
L56980 44110
L57000 44060
L57050 44040
L57140 44040
L57190 44060
L57220 44110
L57220 44160
L56980 44200
" />
<path d="M57620 44350
L57570 44370
L57480 44370
L57430 44350
L57410 44300
L57410 44110
L57430 44060
L57480 44040
L57570 44040
L57620 44060
L57640 44110
L57640 44160
L57410 44200
" />
<path d="M57790 44040
L57980 44040
" />
<path d="M57860 43870
L57860 44300
L57880 44350
L57930 44370
L57980 44370
" />
<path d="M58140 44320
L58170 44350
L58140 44370
L58120 44350
L58140 44320
L58140 44370
" />
<path d="M58140 44060
L58170 44090
L58140 44110
L58120 44090
L58140 44060
L58140 44110
" />
<g transform="rotate(-90 62400 22000)">
<text x="62400" y="22000"
textLength="960" font-size="660" lengthAdjust="spacingAndGlyphs"
text-anchor="start" opacity="0">5V</text>
</g>
<path d="M61870 21610
L61870 21850
L62110 21870
L62090 21850
L62060 21800
L62060 21680
L62090 21630
L62110 21610
L62160 21580
L62280 21580
L62320 21610
L62350 21630
L62370 21680
L62370 21800
L62350 21850
L62320 21870
" />
<path d="M61870 21440
L62370 21270
L61870 21110
" />
</g>
<g style="fill:#0000C2; fill-opacity:0.0; 
stroke:#0000C2; stroke-width:0; stroke-opacity:1; 
stroke-linecap:round; stroke-linejoin:round;">
</g>
<g style="fill:#008400; fill-opacity:0.0; 
stroke:#008400; stroke-width:0; stroke-opacity:1; 
stroke-linecap:round; stroke-linejoin:round;">
</g>
<g style="fill:#008400; fill-opacity:1.0; 
stroke:#008400; stroke-width:100; stroke-opacity:1; 
stroke-linecap:round; stroke-linejoin:round;">
<circle cx="53000" cy="37000" r="200" /> 
</g>
<g style="fill:#008400; fill-opacity:1.0; 
stroke:#008400; stroke-width:0; stroke-opacity:1; 
stroke-linecap:round; stroke-linejoin:round;">
</g>
<g style="fill:#008400; fill-opacity:1.0; 
stroke:#008400; stroke-width:100; stroke-opacity:1; 
stroke-linecap:round; stroke-linejoin:round;">
<circle cx="53000" cy="27500" r="200" /> 
</g>
<g style="fill:#008400; fill-opacity:1.0; 
stroke:#008400; stroke-width:0; stroke-opacity:1; 
stroke-linecap:round; stroke-linejoin:round;">
</g>
<g style="fill:#008400; fill-opacity:1.0; 
stroke:#008400; stroke-width:100; stroke-opacity:1; 
stroke-linecap:round; stroke-linejoin:round;">
<circle cx="61000" cy="34000" r="200" /> 
</g>
<g style="fill:#008400; fill-opacity:1.0; 
stroke:#008400; stroke-width:0; stroke-opacity:1; 
stroke-linecap:round; stroke-linejoin:round;">
</g>
<g style="fill:#008400; fill-opacity:1.0; 
stroke:#008400; stroke-width:100; stroke-opacity:1; 
stroke-linecap:round; stroke-linejoin:round;">
<circle cx="61000" cy="24500" r="200" /> 
</g> 
</svg>
